<?xml version="1.0" encoding="utf-8" standalone="no"?>
<!DOCTYPE svg PUBLIC "-//W3C//DTD SVG 1.1//EN"
  "http://www.w3.org/Graphics/SVG/1.1/DTD/svg11.dtd">
<!-- Created with matplotlib (https://matplotlib.org/) -->
<svg height="576pt" version="1.1" viewBox="0 0 1152 576" width="1152pt" xmlns="http://www.w3.org/2000/svg" xmlns:xlink="http://www.w3.org/1999/xlink">
 <defs>
  <style type="text/css">
*{stroke-linecap:butt;stroke-linejoin:round;}
  </style>
 </defs>
 <g id="figure_1">
  <g id="patch_1">
   <path d="M 0 576 
L 1152 576 
L 1152 0 
L 0 0 
z
" style="fill:#ffffff;"/>
  </g>
  <g id="axes_1">
   <g id="patch_2">
    <path d="M 144 512.64 
L 549.818182 512.64 
L 549.818182 69.12 
L 144 69.12 
z
" style="fill:#ffffff;"/>
   </g>
   <g id="matplotlib.axis_1">
    <g id="xtick_1">
     <g id="line2d_1">
      <defs>
       <path d="M 0 0 
L 0 3.5 
" id="mbdabe16658" style="stroke:#000000;stroke-width:0.8;"/>
      </defs>
      <g>
       <use style="stroke:#000000;stroke-width:0.8;" x="193.190083" xlink:href="#mbdabe16658" y="512.64"/>
      </g>
     </g>
     <g id="text_1">
      <!-- −20 -->
      <defs>
       <path d="M 10.59375 35.5 
L 73.1875 35.5 
L 73.1875 27.203125 
L 10.59375 27.203125 
z
" id="DejaVuSans-8722"/>
       <path d="M 19.1875 8.296875 
L 53.609375 8.296875 
L 53.609375 0 
L 7.328125 0 
L 7.328125 8.296875 
Q 12.9375 14.109375 22.625 23.890625 
Q 32.328125 33.6875 34.8125 36.53125 
Q 39.546875 41.84375 41.421875 45.53125 
Q 43.3125 49.21875 43.3125 52.78125 
Q 43.3125 58.59375 39.234375 62.25 
Q 35.15625 65.921875 28.609375 65.921875 
Q 23.96875 65.921875 18.8125 64.3125 
Q 13.671875 62.703125 7.8125 59.421875 
L 7.8125 69.390625 
Q 13.765625 71.78125 18.9375 73 
Q 24.125 74.21875 28.421875 74.21875 
Q 39.75 74.21875 46.484375 68.546875 
Q 53.21875 62.890625 53.21875 53.421875 
Q 53.21875 48.921875 51.53125 44.890625 
Q 49.859375 40.875 45.40625 35.40625 
Q 44.1875 33.984375 37.640625 27.21875 
Q 31.109375 20.453125 19.1875 8.296875 
z
" id="DejaVuSans-50"/>
       <path d="M 31.78125 66.40625 
Q 24.171875 66.40625 20.328125 58.90625 
Q 16.5 51.421875 16.5 36.375 
Q 16.5 21.390625 20.328125 13.890625 
Q 24.171875 6.390625 31.78125 6.390625 
Q 39.453125 6.390625 43.28125 13.890625 
Q 47.125 21.390625 47.125 36.375 
Q 47.125 51.421875 43.28125 58.90625 
Q 39.453125 66.40625 31.78125 66.40625 
z
M 31.78125 74.21875 
Q 44.046875 74.21875 50.515625 64.515625 
Q 56.984375 54.828125 56.984375 36.375 
Q 56.984375 17.96875 50.515625 8.265625 
Q 44.046875 -1.421875 31.78125 -1.421875 
Q 19.53125 -1.421875 13.0625 8.265625 
Q 6.59375 17.96875 6.59375 36.375 
Q 6.59375 54.828125 13.0625 64.515625 
Q 19.53125 74.21875 31.78125 74.21875 
z
" id="DejaVuSans-48"/>
      </defs>
      <g transform="translate(182.637739 527.238438)scale(0.1 -0.1)">
       <use xlink:href="#DejaVuSans-8722"/>
       <use x="83.789062" xlink:href="#DejaVuSans-50"/>
       <use x="147.412109" xlink:href="#DejaVuSans-48"/>
      </g>
     </g>
    </g>
    <g id="xtick_2">
     <g id="line2d_2">
      <g>
       <use style="stroke:#000000;stroke-width:0.8;" x="270.049587" xlink:href="#mbdabe16658" y="512.64"/>
      </g>
     </g>
     <g id="text_2">
      <!-- −10 -->
      <defs>
       <path d="M 12.40625 8.296875 
L 28.515625 8.296875 
L 28.515625 63.921875 
L 10.984375 60.40625 
L 10.984375 69.390625 
L 28.421875 72.90625 
L 38.28125 72.90625 
L 38.28125 8.296875 
L 54.390625 8.296875 
L 54.390625 0 
L 12.40625 0 
z
" id="DejaVuSans-49"/>
      </defs>
      <g transform="translate(259.497243 527.238438)scale(0.1 -0.1)">
       <use xlink:href="#DejaVuSans-8722"/>
       <use x="83.789062" xlink:href="#DejaVuSans-49"/>
       <use x="147.412109" xlink:href="#DejaVuSans-48"/>
      </g>
     </g>
    </g>
    <g id="xtick_3">
     <g id="line2d_3">
      <g>
       <use style="stroke:#000000;stroke-width:0.8;" x="346.909091" xlink:href="#mbdabe16658" y="512.64"/>
      </g>
     </g>
     <g id="text_3">
      <!-- 0 -->
      <g transform="translate(343.727841 527.238438)scale(0.1 -0.1)">
       <use xlink:href="#DejaVuSans-48"/>
      </g>
     </g>
    </g>
    <g id="xtick_4">
     <g id="line2d_4">
      <g>
       <use style="stroke:#000000;stroke-width:0.8;" x="423.768595" xlink:href="#mbdabe16658" y="512.64"/>
      </g>
     </g>
     <g id="text_4">
      <!-- 10 -->
      <g transform="translate(417.406095 527.238438)scale(0.1 -0.1)">
       <use xlink:href="#DejaVuSans-49"/>
       <use x="63.623047" xlink:href="#DejaVuSans-48"/>
      </g>
     </g>
    </g>
    <g id="xtick_5">
     <g id="line2d_5">
      <g>
       <use style="stroke:#000000;stroke-width:0.8;" x="500.628099" xlink:href="#mbdabe16658" y="512.64"/>
      </g>
     </g>
     <g id="text_5">
      <!-- 20 -->
      <g transform="translate(494.265599 527.238438)scale(0.1 -0.1)">
       <use xlink:href="#DejaVuSans-50"/>
       <use x="63.623047" xlink:href="#DejaVuSans-48"/>
      </g>
     </g>
    </g>
    <g id="text_6">
     <!-- Time [h] -->
     <defs>
      <path d="M -0.296875 72.90625 
L 61.375 72.90625 
L 61.375 64.59375 
L 35.5 64.59375 
L 35.5 0 
L 25.59375 0 
L 25.59375 64.59375 
L -0.296875 64.59375 
z
" id="DejaVuSans-84"/>
      <path d="M 9.421875 54.6875 
L 18.40625 54.6875 
L 18.40625 0 
L 9.421875 0 
z
M 9.421875 75.984375 
L 18.40625 75.984375 
L 18.40625 64.59375 
L 9.421875 64.59375 
z
" id="DejaVuSans-105"/>
      <path d="M 52 44.1875 
Q 55.375 50.25 60.0625 53.125 
Q 64.75 56 71.09375 56 
Q 79.640625 56 84.28125 50.015625 
Q 88.921875 44.046875 88.921875 33.015625 
L 88.921875 0 
L 79.890625 0 
L 79.890625 32.71875 
Q 79.890625 40.578125 77.09375 44.375 
Q 74.3125 48.1875 68.609375 48.1875 
Q 61.625 48.1875 57.5625 43.546875 
Q 53.515625 38.921875 53.515625 30.90625 
L 53.515625 0 
L 44.484375 0 
L 44.484375 32.71875 
Q 44.484375 40.625 41.703125 44.40625 
Q 38.921875 48.1875 33.109375 48.1875 
Q 26.21875 48.1875 22.15625 43.53125 
Q 18.109375 38.875 18.109375 30.90625 
L 18.109375 0 
L 9.078125 0 
L 9.078125 54.6875 
L 18.109375 54.6875 
L 18.109375 46.1875 
Q 21.1875 51.21875 25.484375 53.609375 
Q 29.78125 56 35.6875 56 
Q 41.65625 56 45.828125 52.96875 
Q 50 49.953125 52 44.1875 
z
" id="DejaVuSans-109"/>
      <path d="M 56.203125 29.59375 
L 56.203125 25.203125 
L 14.890625 25.203125 
Q 15.484375 15.921875 20.484375 11.0625 
Q 25.484375 6.203125 34.421875 6.203125 
Q 39.59375 6.203125 44.453125 7.46875 
Q 49.3125 8.734375 54.109375 11.28125 
L 54.109375 2.78125 
Q 49.265625 0.734375 44.1875 -0.34375 
Q 39.109375 -1.421875 33.890625 -1.421875 
Q 20.796875 -1.421875 13.15625 6.1875 
Q 5.515625 13.8125 5.515625 26.8125 
Q 5.515625 40.234375 12.765625 48.109375 
Q 20.015625 56 32.328125 56 
Q 43.359375 56 49.78125 48.890625 
Q 56.203125 41.796875 56.203125 29.59375 
z
M 47.21875 32.234375 
Q 47.125 39.59375 43.09375 43.984375 
Q 39.0625 48.390625 32.421875 48.390625 
Q 24.90625 48.390625 20.390625 44.140625 
Q 15.875 39.890625 15.1875 32.171875 
z
" id="DejaVuSans-101"/>
      <path id="DejaVuSans-32"/>
      <path d="M 8.59375 75.984375 
L 29.296875 75.984375 
L 29.296875 69 
L 17.578125 69 
L 17.578125 -6.203125 
L 29.296875 -6.203125 
L 29.296875 -13.1875 
L 8.59375 -13.1875 
z
" id="DejaVuSans-91"/>
      <path d="M 54.890625 33.015625 
L 54.890625 0 
L 45.90625 0 
L 45.90625 32.71875 
Q 45.90625 40.484375 42.875 44.328125 
Q 39.84375 48.1875 33.796875 48.1875 
Q 26.515625 48.1875 22.3125 43.546875 
Q 18.109375 38.921875 18.109375 30.90625 
L 18.109375 0 
L 9.078125 0 
L 9.078125 75.984375 
L 18.109375 75.984375 
L 18.109375 46.1875 
Q 21.34375 51.125 25.703125 53.5625 
Q 30.078125 56 35.796875 56 
Q 45.21875 56 50.046875 50.171875 
Q 54.890625 44.34375 54.890625 33.015625 
z
" id="DejaVuSans-104"/>
      <path d="M 30.421875 75.984375 
L 30.421875 -13.1875 
L 9.71875 -13.1875 
L 9.71875 -6.203125 
L 21.390625 -6.203125 
L 21.390625 69 
L 9.71875 69 
L 9.71875 75.984375 
z
" id="DejaVuSans-93"/>
     </defs>
     <g transform="translate(309.301747 546.995312)scale(0.18 -0.18)">
      <use xlink:href="#DejaVuSans-84"/>
      <use x="57.958984" xlink:href="#DejaVuSans-105"/>
      <use x="85.742188" xlink:href="#DejaVuSans-109"/>
      <use x="183.154297" xlink:href="#DejaVuSans-101"/>
      <use x="244.677734" xlink:href="#DejaVuSans-32"/>
      <use x="276.464844" xlink:href="#DejaVuSans-91"/>
      <use x="315.478516" xlink:href="#DejaVuSans-104"/>
      <use x="378.857422" xlink:href="#DejaVuSans-93"/>
     </g>
    </g>
   </g>
   <g id="matplotlib.axis_2">
    <g id="ytick_1">
     <g id="line2d_6">
      <defs>
       <path d="M 0 0 
L -3.5 0 
" id="mb490078a02" style="stroke:#000000;stroke-width:0.8;"/>
      </defs>
      <g>
       <use style="stroke:#000000;stroke-width:0.8;" x="144" xlink:href="#mb490078a02" y="457.520463"/>
      </g>
     </g>
     <g id="text_7">
      <!-- −7.5 -->
      <defs>
       <path d="M 8.203125 72.90625 
L 55.078125 72.90625 
L 55.078125 68.703125 
L 28.609375 0 
L 18.3125 0 
L 43.21875 64.59375 
L 8.203125 64.59375 
z
" id="DejaVuSans-55"/>
       <path d="M 10.6875 12.40625 
L 21 12.40625 
L 21 0 
L 10.6875 0 
z
" id="DejaVuSans-46"/>
       <path d="M 10.796875 72.90625 
L 49.515625 72.90625 
L 49.515625 64.59375 
L 19.828125 64.59375 
L 19.828125 46.734375 
Q 21.96875 47.46875 24.109375 47.828125 
Q 26.265625 48.1875 28.421875 48.1875 
Q 40.625 48.1875 47.75 41.5 
Q 54.890625 34.8125 54.890625 23.390625 
Q 54.890625 11.625 47.5625 5.09375 
Q 40.234375 -1.421875 26.90625 -1.421875 
Q 22.3125 -1.421875 17.546875 -0.640625 
Q 12.796875 0.140625 7.71875 1.703125 
L 7.71875 11.625 
Q 12.109375 9.234375 16.796875 8.0625 
Q 21.484375 6.890625 26.703125 6.890625 
Q 35.15625 6.890625 40.078125 11.328125 
Q 45.015625 15.765625 45.015625 23.390625 
Q 45.015625 31 40.078125 35.4375 
Q 35.15625 39.890625 26.703125 39.890625 
Q 22.75 39.890625 18.8125 39.015625 
Q 14.890625 38.140625 10.796875 36.28125 
z
" id="DejaVuSans-53"/>
      </defs>
      <g transform="translate(112.717187 461.319682)scale(0.1 -0.1)">
       <use xlink:href="#DejaVuSans-8722"/>
       <use x="83.789062" xlink:href="#DejaVuSans-55"/>
       <use x="147.412109" xlink:href="#DejaVuSans-46"/>
       <use x="179.199219" xlink:href="#DejaVuSans-53"/>
      </g>
     </g>
    </g>
    <g id="ytick_2">
     <g id="line2d_7">
      <g>
       <use style="stroke:#000000;stroke-width:0.8;" x="144" xlink:href="#mb490078a02" y="399.254568"/>
      </g>
     </g>
     <g id="text_8">
      <!-- −5.0 -->
      <g transform="translate(112.717187 403.053786)scale(0.1 -0.1)">
       <use xlink:href="#DejaVuSans-8722"/>
       <use x="83.789062" xlink:href="#DejaVuSans-53"/>
       <use x="147.412109" xlink:href="#DejaVuSans-46"/>
       <use x="179.199219" xlink:href="#DejaVuSans-48"/>
      </g>
     </g>
    </g>
    <g id="ytick_3">
     <g id="line2d_8">
      <g>
       <use style="stroke:#000000;stroke-width:0.8;" x="144" xlink:href="#mb490078a02" y="340.988672"/>
      </g>
     </g>
     <g id="text_9">
      <!-- −2.5 -->
      <g transform="translate(112.717187 344.787891)scale(0.1 -0.1)">
       <use xlink:href="#DejaVuSans-8722"/>
       <use x="83.789062" xlink:href="#DejaVuSans-50"/>
       <use x="147.412109" xlink:href="#DejaVuSans-46"/>
       <use x="179.199219" xlink:href="#DejaVuSans-53"/>
      </g>
     </g>
    </g>
    <g id="ytick_4">
     <g id="line2d_9">
      <g>
       <use style="stroke:#000000;stroke-width:0.8;" x="144" xlink:href="#mb490078a02" y="282.722777"/>
      </g>
     </g>
     <g id="text_10">
      <!-- 0.0 -->
      <g transform="translate(121.096875 286.521996)scale(0.1 -0.1)">
       <use xlink:href="#DejaVuSans-48"/>
       <use x="63.623047" xlink:href="#DejaVuSans-46"/>
       <use x="95.410156" xlink:href="#DejaVuSans-48"/>
      </g>
     </g>
    </g>
    <g id="ytick_5">
     <g id="line2d_10">
      <g>
       <use style="stroke:#000000;stroke-width:0.8;" x="144" xlink:href="#mb490078a02" y="224.456882"/>
      </g>
     </g>
     <g id="text_11">
      <!-- 2.5 -->
      <g transform="translate(121.096875 228.2561)scale(0.1 -0.1)">
       <use xlink:href="#DejaVuSans-50"/>
       <use x="63.623047" xlink:href="#DejaVuSans-46"/>
       <use x="95.410156" xlink:href="#DejaVuSans-53"/>
      </g>
     </g>
    </g>
    <g id="ytick_6">
     <g id="line2d_11">
      <g>
       <use style="stroke:#000000;stroke-width:0.8;" x="144" xlink:href="#mb490078a02" y="166.190986"/>
      </g>
     </g>
     <g id="text_12">
      <!-- 5.0 -->
      <g transform="translate(121.096875 169.990205)scale(0.1 -0.1)">
       <use xlink:href="#DejaVuSans-53"/>
       <use x="63.623047" xlink:href="#DejaVuSans-46"/>
       <use x="95.410156" xlink:href="#DejaVuSans-48"/>
      </g>
     </g>
    </g>
    <g id="ytick_7">
     <g id="line2d_12">
      <g>
       <use style="stroke:#000000;stroke-width:0.8;" x="144" xlink:href="#mb490078a02" y="107.925091"/>
      </g>
     </g>
     <g id="text_13">
      <!-- 7.5 -->
      <g transform="translate(121.096875 111.72431)scale(0.1 -0.1)">
       <use xlink:href="#DejaVuSans-55"/>
       <use x="63.623047" xlink:href="#DejaVuSans-46"/>
       <use x="95.410156" xlink:href="#DejaVuSans-53"/>
      </g>
     </g>
    </g>
    <g id="text_14">
     <!-- Radial Magnetic Field Strength [nT] -->
     <defs>
      <path d="M 44.390625 34.1875 
Q 47.5625 33.109375 50.5625 29.59375 
Q 53.5625 26.078125 56.59375 19.921875 
L 66.609375 0 
L 56 0 
L 46.6875 18.703125 
Q 43.0625 26.03125 39.671875 28.421875 
Q 36.28125 30.8125 30.421875 30.8125 
L 19.671875 30.8125 
L 19.671875 0 
L 9.8125 0 
L 9.8125 72.90625 
L 32.078125 72.90625 
Q 44.578125 72.90625 50.734375 67.671875 
Q 56.890625 62.453125 56.890625 51.90625 
Q 56.890625 45.015625 53.6875 40.46875 
Q 50.484375 35.9375 44.390625 34.1875 
z
M 19.671875 64.796875 
L 19.671875 38.921875 
L 32.078125 38.921875 
Q 39.203125 38.921875 42.84375 42.21875 
Q 46.484375 45.515625 46.484375 51.90625 
Q 46.484375 58.296875 42.84375 61.546875 
Q 39.203125 64.796875 32.078125 64.796875 
z
" id="DejaVuSans-82"/>
      <path d="M 34.28125 27.484375 
Q 23.390625 27.484375 19.1875 25 
Q 14.984375 22.515625 14.984375 16.5 
Q 14.984375 11.71875 18.140625 8.90625 
Q 21.296875 6.109375 26.703125 6.109375 
Q 34.1875 6.109375 38.703125 11.40625 
Q 43.21875 16.703125 43.21875 25.484375 
L 43.21875 27.484375 
z
M 52.203125 31.203125 
L 52.203125 0 
L 43.21875 0 
L 43.21875 8.296875 
Q 40.140625 3.328125 35.546875 0.953125 
Q 30.953125 -1.421875 24.3125 -1.421875 
Q 15.921875 -1.421875 10.953125 3.296875 
Q 6 8.015625 6 15.921875 
Q 6 25.140625 12.171875 29.828125 
Q 18.359375 34.515625 30.609375 34.515625 
L 43.21875 34.515625 
L 43.21875 35.40625 
Q 43.21875 41.609375 39.140625 45 
Q 35.0625 48.390625 27.6875 48.390625 
Q 23 48.390625 18.546875 47.265625 
Q 14.109375 46.140625 10.015625 43.890625 
L 10.015625 52.203125 
Q 14.9375 54.109375 19.578125 55.046875 
Q 24.21875 56 28.609375 56 
Q 40.484375 56 46.34375 49.84375 
Q 52.203125 43.703125 52.203125 31.203125 
z
" id="DejaVuSans-97"/>
      <path d="M 45.40625 46.390625 
L 45.40625 75.984375 
L 54.390625 75.984375 
L 54.390625 0 
L 45.40625 0 
L 45.40625 8.203125 
Q 42.578125 3.328125 38.25 0.953125 
Q 33.9375 -1.421875 27.875 -1.421875 
Q 17.96875 -1.421875 11.734375 6.484375 
Q 5.515625 14.40625 5.515625 27.296875 
Q 5.515625 40.1875 11.734375 48.09375 
Q 17.96875 56 27.875 56 
Q 33.9375 56 38.25 53.625 
Q 42.578125 51.265625 45.40625 46.390625 
z
M 14.796875 27.296875 
Q 14.796875 17.390625 18.875 11.75 
Q 22.953125 6.109375 30.078125 6.109375 
Q 37.203125 6.109375 41.296875 11.75 
Q 45.40625 17.390625 45.40625 27.296875 
Q 45.40625 37.203125 41.296875 42.84375 
Q 37.203125 48.484375 30.078125 48.484375 
Q 22.953125 48.484375 18.875 42.84375 
Q 14.796875 37.203125 14.796875 27.296875 
z
" id="DejaVuSans-100"/>
      <path d="M 9.421875 75.984375 
L 18.40625 75.984375 
L 18.40625 0 
L 9.421875 0 
z
" id="DejaVuSans-108"/>
      <path d="M 9.8125 72.90625 
L 24.515625 72.90625 
L 43.109375 23.296875 
L 61.8125 72.90625 
L 76.515625 72.90625 
L 76.515625 0 
L 66.890625 0 
L 66.890625 64.015625 
L 48.09375 14.015625 
L 38.1875 14.015625 
L 19.390625 64.015625 
L 19.390625 0 
L 9.8125 0 
z
" id="DejaVuSans-77"/>
      <path d="M 45.40625 27.984375 
Q 45.40625 37.75 41.375 43.109375 
Q 37.359375 48.484375 30.078125 48.484375 
Q 22.859375 48.484375 18.828125 43.109375 
Q 14.796875 37.75 14.796875 27.984375 
Q 14.796875 18.265625 18.828125 12.890625 
Q 22.859375 7.515625 30.078125 7.515625 
Q 37.359375 7.515625 41.375 12.890625 
Q 45.40625 18.265625 45.40625 27.984375 
z
M 54.390625 6.78125 
Q 54.390625 -7.171875 48.1875 -13.984375 
Q 42 -20.796875 29.203125 -20.796875 
Q 24.46875 -20.796875 20.265625 -20.09375 
Q 16.0625 -19.390625 12.109375 -17.921875 
L 12.109375 -9.1875 
Q 16.0625 -11.328125 19.921875 -12.34375 
Q 23.78125 -13.375 27.78125 -13.375 
Q 36.625 -13.375 41.015625 -8.765625 
Q 45.40625 -4.15625 45.40625 5.171875 
L 45.40625 9.625 
Q 42.625 4.78125 38.28125 2.390625 
Q 33.9375 0 27.875 0 
Q 17.828125 0 11.671875 7.65625 
Q 5.515625 15.328125 5.515625 27.984375 
Q 5.515625 40.671875 11.671875 48.328125 
Q 17.828125 56 27.875 56 
Q 33.9375 56 38.28125 53.609375 
Q 42.625 51.21875 45.40625 46.390625 
L 45.40625 54.6875 
L 54.390625 54.6875 
z
" id="DejaVuSans-103"/>
      <path d="M 54.890625 33.015625 
L 54.890625 0 
L 45.90625 0 
L 45.90625 32.71875 
Q 45.90625 40.484375 42.875 44.328125 
Q 39.84375 48.1875 33.796875 48.1875 
Q 26.515625 48.1875 22.3125 43.546875 
Q 18.109375 38.921875 18.109375 30.90625 
L 18.109375 0 
L 9.078125 0 
L 9.078125 54.6875 
L 18.109375 54.6875 
L 18.109375 46.1875 
Q 21.34375 51.125 25.703125 53.5625 
Q 30.078125 56 35.796875 56 
Q 45.21875 56 50.046875 50.171875 
Q 54.890625 44.34375 54.890625 33.015625 
z
" id="DejaVuSans-110"/>
      <path d="M 18.3125 70.21875 
L 18.3125 54.6875 
L 36.8125 54.6875 
L 36.8125 47.703125 
L 18.3125 47.703125 
L 18.3125 18.015625 
Q 18.3125 11.328125 20.140625 9.421875 
Q 21.96875 7.515625 27.59375 7.515625 
L 36.8125 7.515625 
L 36.8125 0 
L 27.59375 0 
Q 17.1875 0 13.234375 3.875 
Q 9.28125 7.765625 9.28125 18.015625 
L 9.28125 47.703125 
L 2.6875 47.703125 
L 2.6875 54.6875 
L 9.28125 54.6875 
L 9.28125 70.21875 
z
" id="DejaVuSans-116"/>
      <path d="M 48.78125 52.59375 
L 48.78125 44.1875 
Q 44.96875 46.296875 41.140625 47.34375 
Q 37.3125 48.390625 33.40625 48.390625 
Q 24.65625 48.390625 19.8125 42.84375 
Q 14.984375 37.3125 14.984375 27.296875 
Q 14.984375 17.28125 19.8125 11.734375 
Q 24.65625 6.203125 33.40625 6.203125 
Q 37.3125 6.203125 41.140625 7.25 
Q 44.96875 8.296875 48.78125 10.40625 
L 48.78125 2.09375 
Q 45.015625 0.34375 40.984375 -0.53125 
Q 36.96875 -1.421875 32.421875 -1.421875 
Q 20.0625 -1.421875 12.78125 6.34375 
Q 5.515625 14.109375 5.515625 27.296875 
Q 5.515625 40.671875 12.859375 48.328125 
Q 20.21875 56 33.015625 56 
Q 37.15625 56 41.109375 55.140625 
Q 45.0625 54.296875 48.78125 52.59375 
z
" id="DejaVuSans-99"/>
      <path d="M 9.8125 72.90625 
L 51.703125 72.90625 
L 51.703125 64.59375 
L 19.671875 64.59375 
L 19.671875 43.109375 
L 48.578125 43.109375 
L 48.578125 34.8125 
L 19.671875 34.8125 
L 19.671875 0 
L 9.8125 0 
z
" id="DejaVuSans-70"/>
      <path d="M 53.515625 70.515625 
L 53.515625 60.890625 
Q 47.90625 63.578125 42.921875 64.890625 
Q 37.9375 66.21875 33.296875 66.21875 
Q 25.25 66.21875 20.875 63.09375 
Q 16.5 59.96875 16.5 54.203125 
Q 16.5 49.359375 19.40625 46.890625 
Q 22.3125 44.4375 30.421875 42.921875 
L 36.375 41.703125 
Q 47.40625 39.59375 52.65625 34.296875 
Q 57.90625 29 57.90625 20.125 
Q 57.90625 9.515625 50.796875 4.046875 
Q 43.703125 -1.421875 29.984375 -1.421875 
Q 24.8125 -1.421875 18.96875 -0.25 
Q 13.140625 0.921875 6.890625 3.21875 
L 6.890625 13.375 
Q 12.890625 10.015625 18.65625 8.296875 
Q 24.421875 6.59375 29.984375 6.59375 
Q 38.421875 6.59375 43.015625 9.90625 
Q 47.609375 13.234375 47.609375 19.390625 
Q 47.609375 24.75 44.3125 27.78125 
Q 41.015625 30.8125 33.5 32.328125 
L 27.484375 33.5 
Q 16.453125 35.6875 11.515625 40.375 
Q 6.59375 45.0625 6.59375 53.421875 
Q 6.59375 63.09375 13.40625 68.65625 
Q 20.21875 74.21875 32.171875 74.21875 
Q 37.3125 74.21875 42.625 73.28125 
Q 47.953125 72.359375 53.515625 70.515625 
z
" id="DejaVuSans-83"/>
      <path d="M 41.109375 46.296875 
Q 39.59375 47.171875 37.8125 47.578125 
Q 36.03125 48 33.890625 48 
Q 26.265625 48 22.1875 43.046875 
Q 18.109375 38.09375 18.109375 28.8125 
L 18.109375 0 
L 9.078125 0 
L 9.078125 54.6875 
L 18.109375 54.6875 
L 18.109375 46.1875 
Q 20.953125 51.171875 25.484375 53.578125 
Q 30.03125 56 36.53125 56 
Q 37.453125 56 38.578125 55.875 
Q 39.703125 55.765625 41.0625 55.515625 
z
" id="DejaVuSans-114"/>
     </defs>
     <g transform="translate(104.97375 449.256094)rotate(-90)scale(0.18 -0.18)">
      <use xlink:href="#DejaVuSans-82"/>
      <use x="67.232422" xlink:href="#DejaVuSans-97"/>
      <use x="128.511719" xlink:href="#DejaVuSans-100"/>
      <use x="191.988281" xlink:href="#DejaVuSans-105"/>
      <use x="219.771484" xlink:href="#DejaVuSans-97"/>
      <use x="281.050781" xlink:href="#DejaVuSans-108"/>
      <use x="308.833984" xlink:href="#DejaVuSans-32"/>
      <use x="340.621094" xlink:href="#DejaVuSans-77"/>
      <use x="426.900391" xlink:href="#DejaVuSans-97"/>
      <use x="488.179688" xlink:href="#DejaVuSans-103"/>
      <use x="551.65625" xlink:href="#DejaVuSans-110"/>
      <use x="615.035156" xlink:href="#DejaVuSans-101"/>
      <use x="676.558594" xlink:href="#DejaVuSans-116"/>
      <use x="715.767578" xlink:href="#DejaVuSans-105"/>
      <use x="743.550781" xlink:href="#DejaVuSans-99"/>
      <use x="798.53125" xlink:href="#DejaVuSans-32"/>
      <use x="830.318359" xlink:href="#DejaVuSans-70"/>
      <use x="880.587891" xlink:href="#DejaVuSans-105"/>
      <use x="908.371094" xlink:href="#DejaVuSans-101"/>
      <use x="969.894531" xlink:href="#DejaVuSans-108"/>
      <use x="997.677734" xlink:href="#DejaVuSans-100"/>
      <use x="1061.154297" xlink:href="#DejaVuSans-32"/>
      <use x="1092.941406" xlink:href="#DejaVuSans-83"/>
      <use x="1156.417969" xlink:href="#DejaVuSans-116"/>
      <use x="1195.626953" xlink:href="#DejaVuSans-114"/>
      <use x="1234.490234" xlink:href="#DejaVuSans-101"/>
      <use x="1296.013672" xlink:href="#DejaVuSans-110"/>
      <use x="1359.392578" xlink:href="#DejaVuSans-103"/>
      <use x="1422.869141" xlink:href="#DejaVuSans-116"/>
      <use x="1462.078125" xlink:href="#DejaVuSans-104"/>
      <use x="1525.457031" xlink:href="#DejaVuSans-32"/>
      <use x="1557.244141" xlink:href="#DejaVuSans-91"/>
      <use x="1596.257812" xlink:href="#DejaVuSans-110"/>
      <use x="1659.636719" xlink:href="#DejaVuSans-84"/>
      <use x="1720.720703" xlink:href="#DejaVuSans-93"/>
     </g>
    </g>
   </g>
   <g id="line2d_13">
    <path clip-path="url(#p600d38de5e)" d="M 162.446281 294.375956 
L 170.295762 254.755146 
L 178.145244 250.093876 
L 185.994725 268.738961 
L 193.844206 280.392141 
L 201.693687 278.061505 
L 209.543169 282.722777 
L 217.39265 268.738961 
L 225.242131 257.085782 
L 233.091612 222.126248 
L 240.941094 198.81989 
L 248.790575 203.481157 
L 256.640056 203.481157 
L 264.489538 152.207174 
L 272.339019 145.215262 
L 280.1885 131.231449 
L 288.037981 156.868441 
L 295.887463 168.52162 
L 303.736944 159.199074 
L 311.586425 170.852253 
L 319.435906 257.085782 
L 327.285388 222.126248 
L 335.134869 203.481157 
L 342.98435 180.174799 
L 350.833832 275.730869 
L 358.683313 427.222193 
L 366.532794 189.497344 
L 374.382275 205.811796 
L 382.231757 271.069598 
L 390.081238 380.609477 
L 397.930719 441.206017 
L 405.7802 436.544738 
L 413.629682 410.907747 
L 421.479163 368.956303 
L 429.328644 422.560926 
L 437.178126 415.569014 
L 445.027607 420.230292 
L 452.877088 382.940121 
L 460.726569 354.972485 
L 468.576051 385.270755 
L 476.425532 408.577113 
L 484.275013 359.633758 
L 492.124494 403.915835 
L 499.973976 378.278843 
L 507.823457 366.625664 
L 515.672938 408.577113 
L 523.52242 403.915835 
L 531.371901 254.755146 
" style="fill:none;stroke:#d3d3d3;stroke-linecap:square;stroke-width:1.5;"/>
   </g>
   <g id="line2d_14">
    <path clip-path="url(#p600d38de5e)" d="M 162.446281 271.069598 
L 170.295762 280.392141 
L 178.145244 238.440697 
L 185.994725 245.432603 
L 193.844206 294.375956 
L 201.693687 278.061505 
L 209.543169 278.061505 
L 217.39265 280.392141 
L 225.242131 273.400233 
L 233.091612 289.714685 
L 240.941094 252.424512 
L 248.790575 203.481157 
L 256.640056 177.844165 
L 264.489538 170.852253 
L 272.339019 163.860353 
L 280.1885 133.562083 
L 288.037981 117.247636 
L 295.887463 149.87654 
L 303.736944 175.513532 
L 311.586425 229.118154 
L 319.435906 203.481157 
L 327.285388 175.513532 
L 335.134869 280.392141 
L 342.98435 205.811796 
L 350.833832 229.118154 
L 358.683313 261.747055 
L 366.532794 222.126248 
L 374.382275 198.81989 
L 382.231757 184.836077 
L 390.081238 196.489251 
L 397.930719 203.481157 
L 405.7802 226.787515 
L 413.629682 257.085782 
L 421.479163 259.416419 
L 429.328644 245.432603 
L 437.178126 261.747055 
L 445.027607 180.174799 
L 452.877088 184.836077 
L 460.726569 182.505432 
L 468.576051 252.424512 
L 476.425532 203.481157 
L 484.275013 236.110061 
L 492.124494 205.811796 
L 499.973976 170.852253 
L 507.823457 175.513532 
L 515.672938 177.844165 
L 523.52242 210.473069 
L 531.371901 222.126248 
" style="fill:none;stroke:#d3d3d3;stroke-linecap:square;stroke-width:1.5;"/>
   </g>
   <g id="line2d_15">
    <path clip-path="url(#p600d38de5e)" d="M 162.446281 287.384049 
L 170.295762 275.730869 
L 178.145244 294.375956 
L 185.994725 254.755146 
L 193.844206 250.093876 
L 201.693687 268.738961 
L 209.543169 280.392141 
L 217.39265 278.061505 
L 225.242131 282.722777 
L 233.091612 268.738961 
L 240.941094 257.085782 
L 248.790575 222.126248 
L 256.640056 198.81989 
L 264.489538 203.481157 
L 272.339019 203.481157 
L 280.1885 152.207174 
L 288.037981 145.215262 
L 295.887463 131.231449 
L 303.736944 156.868441 
L 311.586425 168.52162 
L 319.435906 159.199074 
L 327.285388 170.852253 
L 335.134869 257.085782 
L 342.98435 222.126248 
L 350.833832 203.481157 
L 358.683313 180.174799 
L 366.532794 275.730869 
L 374.382275 427.222193 
L 382.231757 189.497344 
L 390.081238 205.811796 
L 397.930719 271.069598 
L 405.7802 380.609477 
L 413.629682 441.206017 
L 421.479163 436.544738 
L 429.328644 410.907747 
L 437.178126 368.956303 
L 445.027607 422.560926 
L 452.877088 415.569014 
L 460.726569 420.230292 
L 468.576051 382.940121 
L 476.425532 354.972485 
L 484.275013 385.270755 
L 492.124494 408.577113 
L 499.973976 359.633758 
L 507.823457 403.915835 
L 515.672938 378.278843 
L 523.52242 366.625664 
L 531.371901 408.577113 
" style="fill:none;stroke:#d3d3d3;stroke-linecap:square;stroke-width:1.5;"/>
   </g>
   <g id="line2d_16">
    <path clip-path="url(#p600d38de5e)" d="M 162.446281 275.730869 
L 170.295762 320.01295 
L 178.145244 322.343587 
L 185.994725 361.964397 
L 193.844206 343.319306 
L 201.693687 322.343587 
L 209.543169 303.698499 
L 217.39265 222.126248 
L 225.242131 243.101967 
L 233.091612 177.844165 
L 240.941094 182.505432 
L 248.790575 180.174799 
L 256.640056 152.207174 
L 264.489538 126.570182 
L 272.339019 140.553995 
L 280.1885 152.207174 
L 288.037981 168.52162 
L 295.887463 161.529719 
L 303.736944 159.199074 
L 311.586425 177.844165 
L 319.435906 182.505432 
L 327.285388 166.190986 
L 335.134869 173.182898 
L 342.98435 196.489251 
L 350.833832 198.81989 
L 358.683313 205.811796 
L 366.532794 205.811796 
L 374.382275 198.81989 
L 382.231757 189.497344 
L 390.081238 191.827978 
L 397.930719 203.481157 
L 405.7802 226.787515 
L 413.629682 264.07769 
L 421.479163 313.021041 
L 429.328644 306.029135 
L 437.178126 320.01295 
L 445.027607 338.658039 
L 452.877088 352.641851 
L 460.726569 343.319306 
L 468.576051 361.964397 
L 476.425532 352.641851 
L 484.275013 361.964397 
L 492.124494 371.286937 
L 499.973976 359.633758 
L 507.823457 329.335493 
L 515.672938 378.278843 
L 523.52242 364.29503 
L 531.371901 301.367864 
" style="fill:none;stroke:#d3d3d3;stroke-linecap:square;stroke-width:1.5;"/>
   </g>
   <g id="line2d_17">
    <path clip-path="url(#p600d38de5e)" d="M 162.446281 245.432603 
L 170.295762 294.375956 
L 178.145244 278.061505 
L 185.994725 278.061505 
L 193.844206 280.392141 
L 201.693687 273.400233 
L 209.543169 289.714685 
L 217.39265 252.424512 
L 225.242131 203.481157 
L 233.091612 177.844165 
L 240.941094 170.852253 
L 248.790575 163.860353 
L 256.640056 133.562083 
L 264.489538 117.247636 
L 272.339019 149.87654 
L 280.1885 175.513532 
L 288.037981 229.118154 
L 295.887463 203.481157 
L 303.736944 175.513532 
L 311.586425 280.392141 
L 319.435906 205.811796 
L 327.285388 229.118154 
L 335.134869 261.747055 
L 342.98435 222.126248 
L 350.833832 198.81989 
L 358.683313 184.836077 
L 366.532794 196.489251 
L 374.382275 203.481157 
L 382.231757 226.787515 
L 390.081238 257.085782 
L 397.930719 259.416419 
L 405.7802 245.432603 
L 413.629682 261.747055 
L 421.479163 180.174799 
L 429.328644 184.836077 
L 437.178126 182.505432 
L 445.027607 252.424512 
L 452.877088 203.481157 
L 460.726569 236.110061 
L 468.576051 205.811796 
L 476.425532 170.852253 
L 484.275013 175.513532 
L 492.124494 177.844165 
L 499.973976 210.473069 
L 507.823457 222.126248 
L 515.672938 289.714685 
L 523.52242 252.424512 
L 531.371901 231.448788 
" style="fill:none;stroke:#d3d3d3;stroke-linecap:square;stroke-width:1.5;"/>
   </g>
   <g id="line2d_18">
    <path clip-path="url(#p600d38de5e)" d="M 162.446281 322.343587 
L 170.295762 271.069598 
L 178.145244 299.037227 
L 185.994725 306.029135 
L 193.844206 278.061505 
L 201.693687 266.408326 
L 209.543169 361.964397 
L 217.39265 338.658039 
L 225.242131 222.126248 
L 233.091612 243.101967 
L 240.941094 142.884628 
L 248.790575 147.545895 
L 256.640056 145.215262 
L 264.489538 149.87654 
L 272.339019 161.529719 
L 280.1885 182.505432 
L 288.037981 177.844165 
L 295.887463 175.513532 
L 303.736944 154.537807 
L 311.586425 154.537807 
L 319.435906 149.87654 
L 327.285388 203.481157 
L 335.134869 229.118154 
L 342.98435 182.505432 
L 350.833832 154.537807 
L 358.683313 177.844165 
L 366.532794 184.836077 
L 374.382275 145.215262 
L 382.231757 166.190986 
L 390.081238 194.158617 
L 397.930719 114.917003 
L 405.7802 131.231449 
L 413.629682 131.231449 
L 421.479163 119.57827 
L 429.328644 191.827978 
L 437.178126 217.464975 
L 445.027607 210.473069 
L 452.877088 212.803703 
L 460.726569 238.440697 
L 468.576051 222.126248 
L 476.425532 231.448788 
L 484.275013 201.150523 
L 492.124494 177.844165 
L 499.973976 191.827978 
L 507.823457 187.166711 
L 515.672938 212.803703 
L 523.52242 184.836077 
L 531.371901 180.174799 
" style="fill:none;stroke:#d3d3d3;stroke-linecap:square;stroke-width:1.5;"/>
   </g>
   <g id="line2d_19">
    <path clip-path="url(#p600d38de5e)" d="M 162.446281 275.730869 
L 170.295762 294.375956 
L 178.145244 289.714685 
L 185.994725 299.037227 
L 193.844206 243.101967 
L 201.693687 282.722777 
L 209.543169 282.722777 
L 217.39265 240.771333 
L 225.242131 236.110061 
L 233.091612 231.448788 
L 240.941094 247.76324 
L 248.790575 219.795609 
L 256.640056 210.473069 
L 264.489538 191.827978 
L 272.339019 180.174799 
L 280.1885 194.158617 
L 288.037981 182.505432 
L 295.887463 182.505432 
L 303.736944 194.158617 
L 311.586425 194.158617 
L 319.435906 198.81989 
L 327.285388 189.497344 
L 335.134869 273.400233 
L 342.98435 296.706592 
L 350.833832 275.730869 
L 358.683313 294.375956 
L 366.532794 247.76324 
L 374.382275 361.964397 
L 382.231757 392.262656 
L 390.081238 492.48 
L 397.930719 427.222193 
L 405.7802 473.834909 
L 413.629682 490.149355 
L 421.479163 483.157466 
L 429.328644 396.923934 
L 437.178126 399.254568 
L 445.027607 359.633758 
L 452.877088 317.682314 
L 460.726569 366.625664 
L 468.576051 396.923934 
L 476.425532 403.915835 
L 484.275013 382.940121 
L 492.124494 389.932022 
L 499.973976 417.899658 
L 507.823457 431.883471 
L 515.672938 320.01295 
L 523.52242 196.489251 
L 531.371901 257.085782 
" style="fill:none;stroke:#d3d3d3;stroke-linecap:square;stroke-width:1.5;"/>
   </g>
   <g id="line2d_20">
    <path clip-path="url(#p600d38de5e)" d="M 162.446281 254.755146 
L 170.295762 250.093876 
L 178.145244 268.738961 
L 185.994725 280.392141 
L 193.844206 278.061505 
L 201.693687 282.722777 
L 209.543169 268.738961 
L 217.39265 257.085782 
L 225.242131 222.126248 
L 233.091612 198.81989 
L 240.941094 203.481157 
L 248.790575 203.481157 
L 256.640056 152.207174 
L 264.489538 145.215262 
L 272.339019 131.231449 
L 280.1885 156.868441 
L 288.037981 168.52162 
L 295.887463 159.199074 
L 303.736944 170.852253 
L 311.586425 257.085782 
L 319.435906 222.126248 
L 327.285388 203.481157 
L 335.134869 180.174799 
L 342.98435 275.730869 
L 350.833832 427.222193 
L 358.683313 189.497344 
L 366.532794 205.811796 
L 374.382275 271.069598 
L 382.231757 380.609477 
L 390.081238 441.206017 
L 397.930719 436.544738 
L 405.7802 410.907747 
L 413.629682 368.956303 
L 421.479163 422.560926 
L 429.328644 415.569014 
L 437.178126 420.230292 
L 445.027607 382.940121 
L 452.877088 354.972485 
L 460.726569 385.270755 
L 468.576051 408.577113 
L 476.425532 359.633758 
L 484.275013 403.915835 
L 492.124494 378.278843 
L 499.973976 366.625664 
L 507.823457 408.577113 
L 515.672938 403.915835 
L 523.52242 254.755146 
L 531.371901 427.222193 
" style="fill:none;stroke:#d3d3d3;stroke-linecap:square;stroke-width:1.5;"/>
   </g>
   <g id="line2d_21">
    <path clip-path="url(#p600d38de5e)" d="M 162.446281 294.375956 
L 170.295762 280.392141 
L 178.145244 306.029135 
L 185.994725 338.658039 
L 193.844206 322.343587 
L 201.693687 250.093876 
L 209.543169 261.747055 
L 217.39265 292.04532 
L 225.242131 271.069598 
L 233.091612 212.803703 
L 240.941094 173.182898 
L 248.790575 177.844165 
L 256.640056 201.150523 
L 264.489538 196.489251 
L 272.339019 203.481157 
L 280.1885 161.529719 
L 288.037981 180.174799 
L 295.887463 212.803703 
L 303.736944 222.126248 
L 311.586425 208.14243 
L 319.435906 212.803703 
L 327.285388 210.473069 
L 335.134869 201.150523 
L 342.98435 194.158617 
L 350.833832 191.827978 
L 358.683313 210.473069 
L 366.532794 210.473069 
L 374.382275 217.464975 
L 382.231757 233.779427 
L 390.081238 208.14243 
L 397.930719 222.126248 
L 405.7802 231.448788 
L 413.629682 222.126248 
L 421.479163 240.771333 
L 429.328644 252.424512 
L 437.178126 203.481157 
L 445.027607 219.795609 
L 452.877088 215.134336 
L 460.726569 205.811796 
L 468.576051 205.811796 
L 476.425532 217.464975 
L 484.275013 189.497344 
L 492.124494 187.166711 
L 499.973976 194.158617 
L 507.823457 208.14243 
L 515.672938 231.448788 
L 523.52242 208.14243 
L 531.371901 222.126248 
" style="fill:none;stroke:#d3d3d3;stroke-linecap:square;stroke-width:1.5;"/>
   </g>
   <g id="line2d_22">
    <path clip-path="url(#p600d38de5e)" d="M 162.446281 245.432603 
L 170.295762 238.440697 
L 178.145244 236.110061 
L 185.994725 236.110061 
L 193.844206 271.069598 
L 201.693687 250.093876 
L 209.543169 226.787515 
L 217.39265 210.473069 
L 225.242131 243.101967 
L 233.091612 243.101967 
L 240.941094 198.81989 
L 248.790575 201.150523 
L 256.640056 191.827978 
L 264.489538 182.505432 
L 272.339019 180.174799 
L 280.1885 182.505432 
L 288.037981 175.513532 
L 295.887463 177.844165 
L 303.736944 173.182898 
L 311.586425 170.852253 
L 319.435906 166.190986 
L 327.285388 184.836077 
L 335.134869 233.779427 
L 342.98435 210.473069 
L 350.833832 215.134336 
L 358.683313 194.158617 
L 366.532794 210.473069 
L 374.382275 217.464975 
L 382.231757 203.481157 
L 390.081238 203.481157 
L 397.930719 203.481157 
L 405.7802 224.456882 
L 413.629682 217.464975 
L 421.479163 219.795609 
L 429.328644 231.448788 
L 437.178126 233.779427 
L 445.027607 229.118154 
L 452.877088 224.456882 
L 460.726569 236.110061 
L 468.576051 238.440697 
L 476.425532 203.481157 
L 484.275013 247.76324 
L 492.124494 212.803703 
L 499.973976 194.158617 
L 507.823457 205.811796 
L 515.672938 219.795609 
L 523.52242 226.787515 
L 531.371901 264.07769 
" style="fill:none;stroke:#d3d3d3;stroke-linecap:square;stroke-width:1.5;"/>
   </g>
   <g id="line2d_23">
    <path clip-path="url(#p600d38de5e)" d="M 162.446281 303.698499 
L 170.295762 292.04532 
L 178.145244 271.069598 
L 185.994725 324.67422 
L 193.844206 264.07769 
L 201.693687 261.747055 
L 209.543169 301.367864 
L 217.39265 250.093876 
L 225.242131 264.07769 
L 233.091612 226.787515 
L 240.941094 194.158617 
L 248.790575 180.174799 
L 256.640056 163.860353 
L 264.489538 114.917003 
L 272.339019 194.158617 
L 280.1885 149.87654 
L 288.037981 189.497344 
L 295.887463 170.852253 
L 303.736944 112.586358 
L 311.586425 215.134336 
L 319.435906 205.811796 
L 327.285388 138.223361 
L 335.134869 266.408326 
L 342.98435 191.827978 
L 350.833832 257.085782 
L 358.683313 198.81989 
L 366.532794 296.706592 
L 374.382275 306.029135 
L 382.231757 180.174799 
L 390.081238 266.408326 
L 397.930719 275.730869 
L 405.7802 119.57827 
L 413.629682 257.085782 
L 421.479163 89.28 
L 429.328644 310.690408 
L 437.178126 254.755146 
L 445.027607 271.069598 
L 452.877088 191.827978 
L 460.726569 194.158617 
L 468.576051 217.464975 
L 476.425532 210.473069 
L 484.275013 226.787515 
L 492.124494 324.67422 
L 499.973976 340.988672 
L 507.823457 268.738961 
L 515.672938 224.456882 
L 523.52242 196.489251 
L 531.371901 219.795609 
" style="fill:none;stroke:#0000ff;stroke-linecap:square;stroke-width:1.5;"/>
   </g>
   <g id="line2d_24">
    <path clip-path="url(#p600d38de5e)" d="M 162.446281 275.730869 
L 170.295762 278.061505 
L 178.145244 283.888095 
L 185.994725 279.226823 
L 193.844206 279.226823 
L 201.693687 275.730869 
L 209.543169 281.557459 
L 217.39265 262.912372 
L 225.242131 243.101967 
L 233.091612 226.787518 
L 240.941094 198.81989 
L 248.790575 202.31584 
L 256.640056 184.836072 
L 264.489538 161.529714 
L 272.339019 162.695036 
L 280.1885 159.19908 
L 288.037981 172.017576 
L 295.887463 172.017576 
L 303.736944 172.017576 
L 311.586425 186.001391 
L 319.435906 201.150523 
L 327.285388 196.489251 
L 335.134869 231.448791 
L 342.98435 208.142433 
L 350.833832 209.307747 
L 358.683313 199.985207 
L 366.532794 208.142433 
L 374.382275 211.638386 
L 382.231757 215.134336 
L 390.081238 206.977113 
L 397.930719 240.771333 
L 405.7802 238.440696 
L 413.629682 262.912373 
L 421.479163 286.21873 
L 429.328644 279.226824 
L 437.178126 290.880003 
L 445.027607 295.541276 
L 452.877088 271.069598 
L 460.726569 290.880001 
L 468.576051 307.194455 
L 476.425532 292.04532 
L 484.275013 303.698499 
L 492.124494 292.04532 
L 499.973976 285.053413 
L 507.823457 275.730871 
L 515.672938 304.863818 
L 523.52242 239.606014 
L 531.371901 255.920464 
" style="fill:none;stroke:#ff0000;stroke-linecap:square;stroke-width:1.5;"/>
   </g>
   <g id="line2d_25">
    <path clip-path="url(#p600d38de5e)" d="M 346.909091 512.64 
L 346.909091 69.12 
" style="fill:none;stroke:#000000;stroke-dasharray:5.55,2.4;stroke-dashoffset:0;stroke-width:1.5;"/>
   </g>
   <g id="patch_3">
    <path d="M 144 512.64 
L 144 69.12 
" style="fill:none;stroke:#000000;stroke-linecap:square;stroke-linejoin:miter;stroke-width:0.8;"/>
   </g>
   <g id="patch_4">
    <path d="M 549.818182 512.64 
L 549.818182 69.12 
" style="fill:none;stroke:#000000;stroke-linecap:square;stroke-linejoin:miter;stroke-width:0.8;"/>
   </g>
   <g id="patch_5">
    <path d="M 144 512.64 
L 549.818182 512.64 
" style="fill:none;stroke:#000000;stroke-linecap:square;stroke-linejoin:miter;stroke-width:0.8;"/>
   </g>
   <g id="patch_6">
    <path d="M 144 69.12 
L 549.818182 69.12 
" style="fill:none;stroke:#000000;stroke-linecap:square;stroke-linejoin:miter;stroke-width:0.8;"/>
   </g>
   <g id="legend_1">
    <g id="patch_7">
     <path d="M 153.8 505.64 
L 323.515 505.64 
Q 326.315 505.64 326.315 502.84 
L 326.315 463.14125 
Q 326.315 460.34125 323.515 460.34125 
L 153.8 460.34125 
Q 151 460.34125 151 463.14125 
L 151 502.84 
Q 151 505.64 153.8 505.64 
z
" style="fill:#ffffff;opacity:0.8;stroke:#cccccc;stroke-linejoin:miter;"/>
    </g>
    <g id="line2d_26">
     <path d="M 156.6 471.679063 
L 184.6 471.679063 
" style="fill:none;stroke:#0000ff;stroke-linecap:square;stroke-width:1.5;"/>
    </g>
    <g id="line2d_27"/>
    <g id="text_15">
     <!-- Observation -->
     <defs>
      <path d="M 39.40625 66.21875 
Q 28.65625 66.21875 22.328125 58.203125 
Q 16.015625 50.203125 16.015625 36.375 
Q 16.015625 22.609375 22.328125 14.59375 
Q 28.65625 6.59375 39.40625 6.59375 
Q 50.140625 6.59375 56.421875 14.59375 
Q 62.703125 22.609375 62.703125 36.375 
Q 62.703125 50.203125 56.421875 58.203125 
Q 50.140625 66.21875 39.40625 66.21875 
z
M 39.40625 74.21875 
Q 54.734375 74.21875 63.90625 63.9375 
Q 73.09375 53.65625 73.09375 36.375 
Q 73.09375 19.140625 63.90625 8.859375 
Q 54.734375 -1.421875 39.40625 -1.421875 
Q 24.03125 -1.421875 14.8125 8.828125 
Q 5.609375 19.09375 5.609375 36.375 
Q 5.609375 53.65625 14.8125 63.9375 
Q 24.03125 74.21875 39.40625 74.21875 
z
" id="DejaVuSans-79"/>
      <path d="M 48.6875 27.296875 
Q 48.6875 37.203125 44.609375 42.84375 
Q 40.53125 48.484375 33.40625 48.484375 
Q 26.265625 48.484375 22.1875 42.84375 
Q 18.109375 37.203125 18.109375 27.296875 
Q 18.109375 17.390625 22.1875 11.75 
Q 26.265625 6.109375 33.40625 6.109375 
Q 40.53125 6.109375 44.609375 11.75 
Q 48.6875 17.390625 48.6875 27.296875 
z
M 18.109375 46.390625 
Q 20.953125 51.265625 25.265625 53.625 
Q 29.59375 56 35.59375 56 
Q 45.5625 56 51.78125 48.09375 
Q 58.015625 40.1875 58.015625 27.296875 
Q 58.015625 14.40625 51.78125 6.484375 
Q 45.5625 -1.421875 35.59375 -1.421875 
Q 29.59375 -1.421875 25.265625 0.953125 
Q 20.953125 3.328125 18.109375 8.203125 
L 18.109375 0 
L 9.078125 0 
L 9.078125 75.984375 
L 18.109375 75.984375 
z
" id="DejaVuSans-98"/>
      <path d="M 44.28125 53.078125 
L 44.28125 44.578125 
Q 40.484375 46.53125 36.375 47.5 
Q 32.28125 48.484375 27.875 48.484375 
Q 21.1875 48.484375 17.84375 46.4375 
Q 14.5 44.390625 14.5 40.28125 
Q 14.5 37.15625 16.890625 35.375 
Q 19.28125 33.59375 26.515625 31.984375 
L 29.59375 31.296875 
Q 39.15625 29.25 43.1875 25.515625 
Q 47.21875 21.78125 47.21875 15.09375 
Q 47.21875 7.46875 41.1875 3.015625 
Q 35.15625 -1.421875 24.609375 -1.421875 
Q 20.21875 -1.421875 15.453125 -0.5625 
Q 10.6875 0.296875 5.421875 2 
L 5.421875 11.28125 
Q 10.40625 8.6875 15.234375 7.390625 
Q 20.0625 6.109375 24.8125 6.109375 
Q 31.15625 6.109375 34.5625 8.28125 
Q 37.984375 10.453125 37.984375 14.40625 
Q 37.984375 18.0625 35.515625 20.015625 
Q 33.0625 21.96875 24.703125 23.78125 
L 21.578125 24.515625 
Q 13.234375 26.265625 9.515625 29.90625 
Q 5.8125 33.546875 5.8125 39.890625 
Q 5.8125 47.609375 11.28125 51.796875 
Q 16.75 56 26.8125 56 
Q 31.78125 56 36.171875 55.265625 
Q 40.578125 54.546875 44.28125 53.078125 
z
" id="DejaVuSans-115"/>
      <path d="M 2.984375 54.6875 
L 12.5 54.6875 
L 29.59375 8.796875 
L 46.6875 54.6875 
L 56.203125 54.6875 
L 35.6875 0 
L 23.484375 0 
z
" id="DejaVuSans-118"/>
      <path d="M 30.609375 48.390625 
Q 23.390625 48.390625 19.1875 42.75 
Q 14.984375 37.109375 14.984375 27.296875 
Q 14.984375 17.484375 19.15625 11.84375 
Q 23.34375 6.203125 30.609375 6.203125 
Q 37.796875 6.203125 41.984375 11.859375 
Q 46.1875 17.53125 46.1875 27.296875 
Q 46.1875 37.015625 41.984375 42.703125 
Q 37.796875 48.390625 30.609375 48.390625 
z
M 30.609375 56 
Q 42.328125 56 49.015625 48.375 
Q 55.71875 40.765625 55.71875 27.296875 
Q 55.71875 13.875 49.015625 6.21875 
Q 42.328125 -1.421875 30.609375 -1.421875 
Q 18.84375 -1.421875 12.171875 6.21875 
Q 5.515625 13.875 5.515625 27.296875 
Q 5.515625 40.765625 12.171875 48.375 
Q 18.84375 56 30.609375 56 
z
" id="DejaVuSans-111"/>
     </defs>
     <g transform="translate(195.8 476.579063)scale(0.14 -0.14)">
      <use xlink:href="#DejaVuSans-79"/>
      <use x="78.710938" xlink:href="#DejaVuSans-98"/>
      <use x="142.1875" xlink:href="#DejaVuSans-115"/>
      <use x="194.287109" xlink:href="#DejaVuSans-101"/>
      <use x="255.810547" xlink:href="#DejaVuSans-114"/>
      <use x="296.923828" xlink:href="#DejaVuSans-118"/>
      <use x="356.103516" xlink:href="#DejaVuSans-97"/>
      <use x="417.382812" xlink:href="#DejaVuSans-116"/>
      <use x="456.591797" xlink:href="#DejaVuSans-105"/>
      <use x="484.375" xlink:href="#DejaVuSans-111"/>
      <use x="545.556641" xlink:href="#DejaVuSans-110"/>
     </g>
    </g>
    <g id="line2d_28">
     <path d="M 156.6 492.228438 
L 184.6 492.228438 
" style="fill:none;stroke:#ff0000;stroke-linecap:square;stroke-width:1.5;"/>
    </g>
    <g id="line2d_29"/>
    <g id="text_16">
     <!-- Median Prediction -->
     <defs>
      <path d="M 19.671875 64.796875 
L 19.671875 37.40625 
L 32.078125 37.40625 
Q 38.96875 37.40625 42.71875 40.96875 
Q 46.484375 44.53125 46.484375 51.125 
Q 46.484375 57.671875 42.71875 61.234375 
Q 38.96875 64.796875 32.078125 64.796875 
z
M 9.8125 72.90625 
L 32.078125 72.90625 
Q 44.34375 72.90625 50.609375 67.359375 
Q 56.890625 61.8125 56.890625 51.125 
Q 56.890625 40.328125 50.609375 34.8125 
Q 44.34375 29.296875 32.078125 29.296875 
L 19.671875 29.296875 
L 19.671875 0 
L 9.8125 0 
z
" id="DejaVuSans-80"/>
     </defs>
     <g transform="translate(195.8 497.128438)scale(0.14 -0.14)">
      <use xlink:href="#DejaVuSans-77"/>
      <use x="86.279297" xlink:href="#DejaVuSans-101"/>
      <use x="147.802734" xlink:href="#DejaVuSans-100"/>
      <use x="211.279297" xlink:href="#DejaVuSans-105"/>
      <use x="239.0625" xlink:href="#DejaVuSans-97"/>
      <use x="300.341797" xlink:href="#DejaVuSans-110"/>
      <use x="363.720703" xlink:href="#DejaVuSans-32"/>
      <use x="395.507812" xlink:href="#DejaVuSans-80"/>
      <use x="454.060547" xlink:href="#DejaVuSans-114"/>
      <use x="492.923828" xlink:href="#DejaVuSans-101"/>
      <use x="554.447266" xlink:href="#DejaVuSans-100"/>
      <use x="617.923828" xlink:href="#DejaVuSans-105"/>
      <use x="645.707031" xlink:href="#DejaVuSans-99"/>
      <use x="700.6875" xlink:href="#DejaVuSans-116"/>
      <use x="739.896484" xlink:href="#DejaVuSans-105"/>
      <use x="767.679688" xlink:href="#DejaVuSans-111"/>
      <use x="828.861328" xlink:href="#DejaVuSans-110"/>
     </g>
    </g>
   </g>
  </g>
  <g id="axes_2">
   <g id="patch_8">
    <path d="M 630.981818 512.64 
L 1036.8 512.64 
L 1036.8 69.12 
L 630.981818 69.12 
z
" style="fill:#ffffff;"/>
   </g>
   <g id="matplotlib.axis_3">
    <g id="xtick_6">
     <g id="line2d_30">
      <g>
       <use style="stroke:#000000;stroke-width:0.8;" x="680.171901" xlink:href="#mbdabe16658" y="512.64"/>
      </g>
     </g>
     <g id="text_17">
      <!-- −20 -->
      <g transform="translate(669.619557 527.238438)scale(0.1 -0.1)">
       <use xlink:href="#DejaVuSans-8722"/>
       <use x="83.789062" xlink:href="#DejaVuSans-50"/>
       <use x="147.412109" xlink:href="#DejaVuSans-48"/>
      </g>
     </g>
    </g>
    <g id="xtick_7">
     <g id="line2d_31">
      <g>
       <use style="stroke:#000000;stroke-width:0.8;" x="757.031405" xlink:href="#mbdabe16658" y="512.64"/>
      </g>
     </g>
     <g id="text_18">
      <!-- −10 -->
      <g transform="translate(746.479061 527.238438)scale(0.1 -0.1)">
       <use xlink:href="#DejaVuSans-8722"/>
       <use x="83.789062" xlink:href="#DejaVuSans-49"/>
       <use x="147.412109" xlink:href="#DejaVuSans-48"/>
      </g>
     </g>
    </g>
    <g id="xtick_8">
     <g id="line2d_32">
      <g>
       <use style="stroke:#000000;stroke-width:0.8;" x="833.890909" xlink:href="#mbdabe16658" y="512.64"/>
      </g>
     </g>
     <g id="text_19">
      <!-- 0 -->
      <g transform="translate(830.709659 527.238438)scale(0.1 -0.1)">
       <use xlink:href="#DejaVuSans-48"/>
      </g>
     </g>
    </g>
    <g id="xtick_9">
     <g id="line2d_33">
      <g>
       <use style="stroke:#000000;stroke-width:0.8;" x="910.750413" xlink:href="#mbdabe16658" y="512.64"/>
      </g>
     </g>
     <g id="text_20">
      <!-- 10 -->
      <g transform="translate(904.387913 527.238438)scale(0.1 -0.1)">
       <use xlink:href="#DejaVuSans-49"/>
       <use x="63.623047" xlink:href="#DejaVuSans-48"/>
      </g>
     </g>
    </g>
    <g id="xtick_10">
     <g id="line2d_34">
      <g>
       <use style="stroke:#000000;stroke-width:0.8;" x="987.609917" xlink:href="#mbdabe16658" y="512.64"/>
      </g>
     </g>
     <g id="text_21">
      <!-- 20 -->
      <g transform="translate(981.247417 527.238438)scale(0.1 -0.1)">
       <use xlink:href="#DejaVuSans-50"/>
       <use x="63.623047" xlink:href="#DejaVuSans-48"/>
      </g>
     </g>
    </g>
    <g id="text_22">
     <!-- Time [h] -->
     <g transform="translate(796.283565 546.995312)scale(0.18 -0.18)">
      <use xlink:href="#DejaVuSans-84"/>
      <use x="57.958984" xlink:href="#DejaVuSans-105"/>
      <use x="85.742188" xlink:href="#DejaVuSans-109"/>
      <use x="183.154297" xlink:href="#DejaVuSans-101"/>
      <use x="244.677734" xlink:href="#DejaVuSans-32"/>
      <use x="276.464844" xlink:href="#DejaVuSans-91"/>
      <use x="315.478516" xlink:href="#DejaVuSans-104"/>
      <use x="378.857422" xlink:href="#DejaVuSans-93"/>
     </g>
    </g>
   </g>
   <g id="matplotlib.axis_4">
    <g id="ytick_8">
     <g id="line2d_35">
      <g>
       <use style="stroke:#000000;stroke-width:0.8;" x="630.981818" xlink:href="#mb490078a02" y="482.510769"/>
      </g>
     </g>
     <g id="text_23">
      <!-- 300 -->
      <defs>
       <path d="M 40.578125 39.3125 
Q 47.65625 37.796875 51.625 33 
Q 55.609375 28.21875 55.609375 21.1875 
Q 55.609375 10.40625 48.1875 4.484375 
Q 40.765625 -1.421875 27.09375 -1.421875 
Q 22.515625 -1.421875 17.65625 -0.515625 
Q 12.796875 0.390625 7.625 2.203125 
L 7.625 11.71875 
Q 11.71875 9.328125 16.59375 8.109375 
Q 21.484375 6.890625 26.8125 6.890625 
Q 36.078125 6.890625 40.9375 10.546875 
Q 45.796875 14.203125 45.796875 21.1875 
Q 45.796875 27.640625 41.28125 31.265625 
Q 36.765625 34.90625 28.71875 34.90625 
L 20.21875 34.90625 
L 20.21875 43.015625 
L 29.109375 43.015625 
Q 36.375 43.015625 40.234375 45.921875 
Q 44.09375 48.828125 44.09375 54.296875 
Q 44.09375 59.90625 40.109375 62.90625 
Q 36.140625 65.921875 28.71875 65.921875 
Q 24.65625 65.921875 20.015625 65.03125 
Q 15.375 64.15625 9.8125 62.3125 
L 9.8125 71.09375 
Q 15.4375 72.65625 20.34375 73.4375 
Q 25.25 74.21875 29.59375 74.21875 
Q 40.828125 74.21875 47.359375 69.109375 
Q 53.90625 64.015625 53.90625 55.328125 
Q 53.90625 49.265625 50.4375 45.09375 
Q 46.96875 40.921875 40.578125 39.3125 
z
" id="DejaVuSans-51"/>
      </defs>
      <g transform="translate(604.894318 486.309988)scale(0.1 -0.1)">
       <use xlink:href="#DejaVuSans-51"/>
       <use x="63.623047" xlink:href="#DejaVuSans-48"/>
       <use x="127.246094" xlink:href="#DejaVuSans-48"/>
      </g>
     </g>
    </g>
    <g id="ytick_9">
     <g id="line2d_36">
      <g>
       <use style="stroke:#000000;stroke-width:0.8;" x="630.981818" xlink:href="#mb490078a02" y="427.126154"/>
      </g>
     </g>
     <g id="text_24">
      <!-- 350 -->
      <g transform="translate(604.894318 430.925373)scale(0.1 -0.1)">
       <use xlink:href="#DejaVuSans-51"/>
       <use x="63.623047" xlink:href="#DejaVuSans-53"/>
       <use x="127.246094" xlink:href="#DejaVuSans-48"/>
      </g>
     </g>
    </g>
    <g id="ytick_10">
     <g id="line2d_37">
      <g>
       <use style="stroke:#000000;stroke-width:0.8;" x="630.981818" xlink:href="#mb490078a02" y="371.741538"/>
      </g>
     </g>
     <g id="text_25">
      <!-- 400 -->
      <defs>
       <path d="M 37.796875 64.3125 
L 12.890625 25.390625 
L 37.796875 25.390625 
z
M 35.203125 72.90625 
L 47.609375 72.90625 
L 47.609375 25.390625 
L 58.015625 25.390625 
L 58.015625 17.1875 
L 47.609375 17.1875 
L 47.609375 0 
L 37.796875 0 
L 37.796875 17.1875 
L 4.890625 17.1875 
L 4.890625 26.703125 
z
" id="DejaVuSans-52"/>
      </defs>
      <g transform="translate(604.894318 375.540757)scale(0.1 -0.1)">
       <use xlink:href="#DejaVuSans-52"/>
       <use x="63.623047" xlink:href="#DejaVuSans-48"/>
       <use x="127.246094" xlink:href="#DejaVuSans-48"/>
      </g>
     </g>
    </g>
    <g id="ytick_11">
     <g id="line2d_38">
      <g>
       <use style="stroke:#000000;stroke-width:0.8;" x="630.981818" xlink:href="#mb490078a02" y="316.356923"/>
      </g>
     </g>
     <g id="text_26">
      <!-- 450 -->
      <g transform="translate(604.894318 320.156142)scale(0.1 -0.1)">
       <use xlink:href="#DejaVuSans-52"/>
       <use x="63.623047" xlink:href="#DejaVuSans-53"/>
       <use x="127.246094" xlink:href="#DejaVuSans-48"/>
      </g>
     </g>
    </g>
    <g id="ytick_12">
     <g id="line2d_39">
      <g>
       <use style="stroke:#000000;stroke-width:0.8;" x="630.981818" xlink:href="#mb490078a02" y="260.972308"/>
      </g>
     </g>
     <g id="text_27">
      <!-- 500 -->
      <g transform="translate(604.894318 264.771526)scale(0.1 -0.1)">
       <use xlink:href="#DejaVuSans-53"/>
       <use x="63.623047" xlink:href="#DejaVuSans-48"/>
       <use x="127.246094" xlink:href="#DejaVuSans-48"/>
      </g>
     </g>
    </g>
    <g id="ytick_13">
     <g id="line2d_40">
      <g>
       <use style="stroke:#000000;stroke-width:0.8;" x="630.981818" xlink:href="#mb490078a02" y="205.587692"/>
      </g>
     </g>
     <g id="text_28">
      <!-- 550 -->
      <g transform="translate(604.894318 209.386911)scale(0.1 -0.1)">
       <use xlink:href="#DejaVuSans-53"/>
       <use x="63.623047" xlink:href="#DejaVuSans-53"/>
       <use x="127.246094" xlink:href="#DejaVuSans-48"/>
      </g>
     </g>
    </g>
    <g id="ytick_14">
     <g id="line2d_41">
      <g>
       <use style="stroke:#000000;stroke-width:0.8;" x="630.981818" xlink:href="#mb490078a02" y="150.203077"/>
      </g>
     </g>
     <g id="text_29">
      <!-- 600 -->
      <defs>
       <path d="M 33.015625 40.375 
Q 26.375 40.375 22.484375 35.828125 
Q 18.609375 31.296875 18.609375 23.390625 
Q 18.609375 15.53125 22.484375 10.953125 
Q 26.375 6.390625 33.015625 6.390625 
Q 39.65625 6.390625 43.53125 10.953125 
Q 47.40625 15.53125 47.40625 23.390625 
Q 47.40625 31.296875 43.53125 35.828125 
Q 39.65625 40.375 33.015625 40.375 
z
M 52.59375 71.296875 
L 52.59375 62.3125 
Q 48.875 64.0625 45.09375 64.984375 
Q 41.3125 65.921875 37.59375 65.921875 
Q 27.828125 65.921875 22.671875 59.328125 
Q 17.53125 52.734375 16.796875 39.40625 
Q 19.671875 43.65625 24.015625 45.921875 
Q 28.375 48.1875 33.59375 48.1875 
Q 44.578125 48.1875 50.953125 41.515625 
Q 57.328125 34.859375 57.328125 23.390625 
Q 57.328125 12.15625 50.6875 5.359375 
Q 44.046875 -1.421875 33.015625 -1.421875 
Q 20.359375 -1.421875 13.671875 8.265625 
Q 6.984375 17.96875 6.984375 36.375 
Q 6.984375 53.65625 15.1875 63.9375 
Q 23.390625 74.21875 37.203125 74.21875 
Q 40.921875 74.21875 44.703125 73.484375 
Q 48.484375 72.75 52.59375 71.296875 
z
" id="DejaVuSans-54"/>
      </defs>
      <g transform="translate(604.894318 154.002296)scale(0.1 -0.1)">
       <use xlink:href="#DejaVuSans-54"/>
       <use x="63.623047" xlink:href="#DejaVuSans-48"/>
       <use x="127.246094" xlink:href="#DejaVuSans-48"/>
      </g>
     </g>
    </g>
    <g id="ytick_15">
     <g id="line2d_42">
      <g>
       <use style="stroke:#000000;stroke-width:0.8;" x="630.981818" xlink:href="#mb490078a02" y="94.818462"/>
      </g>
     </g>
     <g id="text_30">
      <!-- 650 -->
      <g transform="translate(604.894318 98.61768)scale(0.1 -0.1)">
       <use xlink:href="#DejaVuSans-54"/>
       <use x="63.623047" xlink:href="#DejaVuSans-53"/>
       <use x="127.246094" xlink:href="#DejaVuSans-48"/>
      </g>
     </g>
    </g>
    <g id="text_31">
     <!-- Radial Wind Velocity [km s$^{-1}$] -->
     <defs>
      <path d="M 3.328125 72.90625 
L 13.28125 72.90625 
L 28.609375 11.28125 
L 43.890625 72.90625 
L 54.984375 72.90625 
L 70.3125 11.28125 
L 85.59375 72.90625 
L 95.609375 72.90625 
L 77.296875 0 
L 64.890625 0 
L 49.515625 63.28125 
L 33.984375 0 
L 21.578125 0 
z
" id="DejaVuSans-87"/>
      <path d="M 28.609375 0 
L 0.78125 72.90625 
L 11.078125 72.90625 
L 34.1875 11.53125 
L 57.328125 72.90625 
L 67.578125 72.90625 
L 39.796875 0 
z
" id="DejaVuSans-86"/>
      <path d="M 32.171875 -5.078125 
Q 28.375 -14.84375 24.75 -17.8125 
Q 21.140625 -20.796875 15.09375 -20.796875 
L 7.90625 -20.796875 
L 7.90625 -13.28125 
L 13.1875 -13.28125 
Q 16.890625 -13.28125 18.9375 -11.515625 
Q 21 -9.765625 23.484375 -3.21875 
L 25.09375 0.875 
L 2.984375 54.6875 
L 12.5 54.6875 
L 29.59375 11.921875 
L 46.6875 54.6875 
L 56.203125 54.6875 
z
" id="DejaVuSans-121"/>
      <path d="M 9.078125 75.984375 
L 18.109375 75.984375 
L 18.109375 31.109375 
L 44.921875 54.6875 
L 56.390625 54.6875 
L 27.390625 29.109375 
L 57.625 0 
L 45.90625 0 
L 18.109375 26.703125 
L 18.109375 0 
L 9.078125 0 
z
" id="DejaVuSans-107"/>
     </defs>
     <g transform="translate(597.114318 424.53)rotate(-90)scale(0.18 -0.18)">
      <use transform="translate(0 0.684375)" xlink:href="#DejaVuSans-82"/>
      <use transform="translate(69.482422 0.684375)" xlink:href="#DejaVuSans-97"/>
      <use transform="translate(130.761719 0.684375)" xlink:href="#DejaVuSans-100"/>
      <use transform="translate(194.238281 0.684375)" xlink:href="#DejaVuSans-105"/>
      <use transform="translate(222.021484 0.684375)" xlink:href="#DejaVuSans-97"/>
      <use transform="translate(283.300781 0.684375)" xlink:href="#DejaVuSans-108"/>
      <use transform="translate(311.083984 0.684375)" xlink:href="#DejaVuSans-32"/>
      <use transform="translate(342.871094 0.684375)" xlink:href="#DejaVuSans-87"/>
      <use transform="translate(441.748047 0.684375)" xlink:href="#DejaVuSans-105"/>
      <use transform="translate(469.53125 0.684375)" xlink:href="#DejaVuSans-110"/>
      <use transform="translate(532.910156 0.684375)" xlink:href="#DejaVuSans-100"/>
      <use transform="translate(596.386719 0.684375)" xlink:href="#DejaVuSans-32"/>
      <use transform="translate(628.173828 0.684375)" xlink:href="#DejaVuSans-86"/>
      <use transform="translate(696.582031 0.684375)" xlink:href="#DejaVuSans-101"/>
      <use transform="translate(758.105469 0.684375)" xlink:href="#DejaVuSans-108"/>
      <use transform="translate(785.888672 0.684375)" xlink:href="#DejaVuSans-111"/>
      <use transform="translate(847.070312 0.684375)" xlink:href="#DejaVuSans-99"/>
      <use transform="translate(902.050781 0.684375)" xlink:href="#DejaVuSans-105"/>
      <use transform="translate(929.833984 0.684375)" xlink:href="#DejaVuSans-116"/>
      <use transform="translate(969.042969 0.684375)" xlink:href="#DejaVuSans-121"/>
      <use transform="translate(1028.222656 0.684375)" xlink:href="#DejaVuSans-32"/>
      <use transform="translate(1060.009766 0.684375)" xlink:href="#DejaVuSans-91"/>
      <use transform="translate(1099.023438 0.684375)" xlink:href="#DejaVuSans-107"/>
      <use transform="translate(1156.933594 0.684375)" xlink:href="#DejaVuSans-109"/>
      <use transform="translate(1254.345703 0.684375)" xlink:href="#DejaVuSans-32"/>
      <use transform="translate(1286.132812 0.684375)" xlink:href="#DejaVuSans-115"/>
      <use transform="translate(1339.189453 38.965625)scale(0.7)" xlink:href="#DejaVuSans-8722"/>
      <use transform="translate(1397.841797 38.965625)scale(0.7)" xlink:href="#DejaVuSans-49"/>
      <use transform="translate(1445.112305 0.684375)" xlink:href="#DejaVuSans-93"/>
     </g>
    </g>
   </g>
   <g id="line2d_43">
    <path clip-path="url(#pcc308bc9c0)" d="M 649.428099 489.156923 
L 657.27758 485.833846 
L 665.127062 469.218462 
L 672.976543 468.110769 
L 680.826024 470.326154 
L 688.675506 473.649231 
L 696.524987 474.756923 
L 704.374468 472.541538 
L 712.223949 450.387692 
L 720.073431 432.664615 
L 727.922912 410.510769 
L 735.772393 401.649231 
L 743.621874 388.356923 
L 751.471356 388.356923 
L 759.320837 366.203077 
L 767.170318 355.126154 
L 775.0198 342.941538 
L 782.869281 349.587692 
L 790.718762 335.187692 
L 798.568243 326.326154 
L 806.417725 309.710769 
L 814.267206 289.772308 
L 822.116687 254.326154 
L 829.966168 232.172308 
L 837.81565 179.003077 
L 845.665131 140.233846 
L 853.514612 123.618462 
L 861.364094 136.910769 
L 869.213575 120.295385 
L 877.063056 124.726154 
L 884.912537 89.28 
L 892.762019 141.341538 
L 900.6115 147.987692 
L 908.460981 115.864615 
L 916.310462 142.449231 
L 924.159944 152.418462 
L 932.009425 154.633846 
L 939.858906 145.772308 
L 947.708388 160.172308 
L 955.557869 130.264615 
L 963.40735 130.264615 
L 971.256831 100.356923 
L 979.106313 112.541538 
L 986.955794 123.618462 
L 994.805275 111.433846 
L 1002.654756 145.772308 
L 1010.504238 156.849231 
L 1018.353719 165.710769 
" style="fill:none;stroke:#d3d3d3;stroke-linecap:square;stroke-width:1.5;"/>
   </g>
   <g id="line2d_44">
    <path clip-path="url(#pcc308bc9c0)" d="M 649.428099 488.049231 
L 657.27758 489.156923 
L 665.127062 485.833846 
L 672.976543 469.218462 
L 680.826024 468.110769 
L 688.675506 470.326154 
L 696.524987 473.649231 
L 704.374468 474.756923 
L 712.223949 472.541538 
L 720.073431 450.387692 
L 727.922912 432.664615 
L 735.772393 410.510769 
L 743.621874 401.649231 
L 751.471356 388.356923 
L 759.320837 388.356923 
L 767.170318 366.203077 
L 775.0198 355.126154 
L 782.869281 342.941538 
L 790.718762 349.587692 
L 798.568243 335.187692 
L 806.417725 326.326154 
L 814.267206 309.710769 
L 822.116687 289.772308 
L 829.966168 254.326154 
L 837.81565 232.172308 
L 845.665131 179.003077 
L 853.514612 140.233846 
L 861.364094 123.618462 
L 869.213575 136.910769 
L 877.063056 120.295385 
L 884.912537 124.726154 
L 892.762019 89.28 
L 900.6115 141.341538 
L 908.460981 147.987692 
L 916.310462 115.864615 
L 924.159944 142.449231 
L 932.009425 152.418462 
L 939.858906 154.633846 
L 947.708388 145.772308 
L 955.557869 160.172308 
L 963.40735 130.264615 
L 971.256831 130.264615 
L 979.106313 100.356923 
L 986.955794 112.541538 
L 994.805275 123.618462 
L 1002.654756 111.433846 
L 1010.504238 145.772308 
L 1018.353719 156.849231 
" style="fill:none;stroke:#d3d3d3;stroke-linecap:square;stroke-width:1.5;"/>
   </g>
   <g id="line2d_45">
    <path clip-path="url(#pcc308bc9c0)" d="M 649.428099 426.018462 
L 657.27758 427.126154 
L 665.127062 430.449231 
L 672.976543 431.556923 
L 680.826024 434.88 
L 688.675506 433.772308 
L 696.524987 437.095385 
L 704.374468 438.203077 
L 712.223949 433.772308 
L 720.073431 437.095385 
L 727.922912 428.233846 
L 735.772393 408.295385 
L 743.621874 408.295385 
L 751.471356 395.003077 
L 759.320837 389.464615 
L 767.170318 389.464615 
L 775.0198 368.418462 
L 782.869281 354.018462 
L 790.718762 348.48 
L 798.568243 336.295385 
L 806.417725 320.787692 
L 814.267206 286.449231 
L 822.116687 266.510769 
L 829.966168 234.387692 
L 837.81565 216.664615 
L 845.665131 204.48 
L 853.514612 187.864615 
L 861.364094 188.972308 
L 869.213575 163.495385 
L 877.063056 161.28 
L 884.912537 146.88 
L 892.762019 140.233846 
L 900.6115 160.172308 
L 908.460981 141.341538 
L 916.310462 138.018462 
L 924.159944 161.28 
L 932.009425 185.649231 
L 939.858906 184.541538 
L 947.708388 177.895385 
L 955.557869 176.787692 
L 963.40735 188.972308 
L 971.256831 184.541538 
L 979.106313 194.510769 
L 986.955794 207.803077 
L 994.805275 203.372308 
L 1002.654756 207.803077 
L 1010.504238 206.695385 
L 1018.353719 218.88 
" style="fill:none;stroke:#d3d3d3;stroke-linecap:square;stroke-width:1.5;"/>
   </g>
   <g id="line2d_46">
    <path clip-path="url(#pcc308bc9c0)" d="M 649.428099 426.018462 
L 657.27758 426.018462 
L 665.127062 427.126154 
L 672.976543 430.449231 
L 680.826024 431.556923 
L 688.675506 434.88 
L 696.524987 433.772308 
L 704.374468 437.095385 
L 712.223949 438.203077 
L 720.073431 433.772308 
L 727.922912 437.095385 
L 735.772393 428.233846 
L 743.621874 408.295385 
L 751.471356 408.295385 
L 759.320837 395.003077 
L 767.170318 389.464615 
L 775.0198 389.464615 
L 782.869281 368.418462 
L 790.718762 354.018462 
L 798.568243 348.48 
L 806.417725 336.295385 
L 814.267206 320.787692 
L 822.116687 286.449231 
L 829.966168 266.510769 
L 837.81565 234.387692 
L 845.665131 216.664615 
L 853.514612 204.48 
L 861.364094 187.864615 
L 869.213575 188.972308 
L 877.063056 163.495385 
L 884.912537 161.28 
L 892.762019 146.88 
L 900.6115 140.233846 
L 908.460981 160.172308 
L 916.310462 141.341538 
L 924.159944 138.018462 
L 932.009425 161.28 
L 939.858906 185.649231 
L 947.708388 184.541538 
L 955.557869 177.895385 
L 963.40735 176.787692 
L 971.256831 188.972308 
L 979.106313 184.541538 
L 986.955794 194.510769 
L 994.805275 207.803077 
L 1002.654756 203.372308 
L 1010.504238 207.803077 
L 1018.353719 206.695385 
" style="fill:none;stroke:#d3d3d3;stroke-linecap:square;stroke-width:1.5;"/>
   </g>
   <g id="line2d_47">
    <path clip-path="url(#pcc308bc9c0)" d="M 649.428099 420.48 
L 657.27758 427.126154 
L 665.127062 429.341538 
L 672.976543 433.772308 
L 680.826024 432.664615 
L 688.675506 434.88 
L 696.524987 424.910769 
L 704.374468 424.910769 
L 712.223949 417.156923 
L 720.073431 409.403077 
L 727.922912 402.756923 
L 735.772393 407.187692 
L 743.621874 408.295385 
L 751.471356 398.326154 
L 759.320837 392.787692 
L 767.170318 369.526154 
L 775.0198 352.910769 
L 782.869281 358.449231 
L 790.718762 346.264615 
L 798.568243 335.187692 
L 806.417725 315.249231 
L 814.267206 303.064615 
L 822.116687 300.849231 
L 829.966168 294.203077 
L 837.81565 297.526154 
L 845.665131 304.172308 
L 853.514612 308.603077 
L 861.364094 304.172308 
L 869.213575 303.064615 
L 877.063056 319.68 
L 884.912537 331.864615 
L 892.762019 334.08 
L 900.6115 331.864615 
L 908.460981 335.187692 
L 916.310462 331.864615 
L 924.159944 328.541538 
L 932.009425 317.464615 
L 939.858906 326.326154 
L 947.708388 318.572308 
L 955.557869 342.941538 
L 963.40735 360.664615 
L 971.256831 387.249231 
L 979.106313 376.172308 
L 986.955794 393.895385 
L 994.805275 395.003077 
L 1002.654756 398.326154 
L 1010.504238 402.756923 
L 1018.353719 408.295385 
" style="fill:none;stroke:#d3d3d3;stroke-linecap:square;stroke-width:1.5;"/>
   </g>
   <g id="line2d_48">
    <path clip-path="url(#pcc308bc9c0)" d="M 649.428099 427.126154 
L 657.27758 429.341538 
L 665.127062 433.772308 
L 672.976543 432.664615 
L 680.826024 434.88 
L 688.675506 424.910769 
L 696.524987 424.910769 
L 704.374468 417.156923 
L 712.223949 409.403077 
L 720.073431 402.756923 
L 727.922912 407.187692 
L 735.772393 408.295385 
L 743.621874 398.326154 
L 751.471356 392.787692 
L 759.320837 369.526154 
L 767.170318 352.910769 
L 775.0198 358.449231 
L 782.869281 346.264615 
L 790.718762 335.187692 
L 798.568243 315.249231 
L 806.417725 303.064615 
L 814.267206 300.849231 
L 822.116687 294.203077 
L 829.966168 297.526154 
L 837.81565 304.172308 
L 845.665131 308.603077 
L 853.514612 304.172308 
L 861.364094 303.064615 
L 869.213575 319.68 
L 877.063056 331.864615 
L 884.912537 334.08 
L 892.762019 331.864615 
L 900.6115 335.187692 
L 908.460981 331.864615 
L 916.310462 328.541538 
L 924.159944 317.464615 
L 932.009425 326.326154 
L 939.858906 318.572308 
L 947.708388 342.941538 
L 955.557869 360.664615 
L 963.40735 387.249231 
L 971.256831 376.172308 
L 979.106313 393.895385 
L 986.955794 395.003077 
L 994.805275 398.326154 
L 1002.654756 402.756923 
L 1010.504238 408.295385 
L 1018.353719 420.48 
" style="fill:none;stroke:#d3d3d3;stroke-linecap:square;stroke-width:1.5;"/>
   </g>
   <g id="line2d_49">
    <path clip-path="url(#pcc308bc9c0)" d="M 649.428099 464.787692 
L 657.27758 465.895385 
L 665.127062 464.787692 
L 672.976543 461.464615 
L 680.826024 435.987692 
L 688.675506 401.649231 
L 696.524987 406.08 
L 704.374468 408.295385 
L 712.223949 410.510769 
L 720.073431 399.433846 
L 727.922912 412.726154 
L 735.772393 399.433846 
L 743.621874 389.464615 
L 751.471356 388.356923 
L 759.320837 409.403077 
L 767.170318 363.987692 
L 775.0198 358.449231 
L 782.869281 352.910769 
L 790.718762 342.941538 
L 798.568243 340.726154 
L 806.417725 330.756923 
L 814.267206 323.003077 
L 822.116687 313.033846 
L 829.966168 303.064615 
L 837.81565 299.741538 
L 845.665131 285.341538 
L 853.514612 279.803077 
L 861.364094 273.156923 
L 869.213575 291.987692 
L 877.063056 297.526154 
L 884.912537 315.249231 
L 892.762019 305.28 
L 900.6115 278.695385 
L 908.460981 258.756923 
L 916.310462 255.433846 
L 924.159944 269.833846 
L 932.009425 268.726154 
L 939.858906 249.895385 
L 947.708388 249.895385 
L 955.557869 251.003077 
L 963.40735 258.756923 
L 971.256831 272.049231 
L 979.106313 280.910769 
L 986.955794 284.233846 
L 994.805275 284.233846 
L 1002.654756 287.556923 
L 1010.504238 284.233846 
L 1018.353719 278.695385 
" style="fill:none;stroke:#d3d3d3;stroke-linecap:square;stroke-width:1.5;"/>
   </g>
   <g id="line2d_50">
    <path clip-path="url(#pcc308bc9c0)" d="M 649.428099 427.126154 
L 657.27758 430.449231 
L 665.127062 431.556923 
L 672.976543 434.88 
L 680.826024 433.772308 
L 688.675506 437.095385 
L 696.524987 438.203077 
L 704.374468 433.772308 
L 712.223949 437.095385 
L 720.073431 428.233846 
L 727.922912 408.295385 
L 735.772393 408.295385 
L 743.621874 395.003077 
L 751.471356 389.464615 
L 759.320837 389.464615 
L 767.170318 368.418462 
L 775.0198 354.018462 
L 782.869281 348.48 
L 790.718762 336.295385 
L 798.568243 320.787692 
L 806.417725 286.449231 
L 814.267206 266.510769 
L 822.116687 234.387692 
L 829.966168 216.664615 
L 837.81565 204.48 
L 845.665131 187.864615 
L 853.514612 188.972308 
L 861.364094 163.495385 
L 869.213575 161.28 
L 877.063056 146.88 
L 884.912537 140.233846 
L 892.762019 160.172308 
L 900.6115 141.341538 
L 908.460981 138.018462 
L 916.310462 161.28 
L 924.159944 185.649231 
L 932.009425 184.541538 
L 939.858906 177.895385 
L 947.708388 176.787692 
L 955.557869 188.972308 
L 963.40735 184.541538 
L 971.256831 194.510769 
L 979.106313 207.803077 
L 986.955794 203.372308 
L 994.805275 207.803077 
L 1002.654756 206.695385 
L 1010.504238 218.88 
L 1018.353719 239.926154 
" style="fill:none;stroke:#d3d3d3;stroke-linecap:square;stroke-width:1.5;"/>
   </g>
   <g id="line2d_51">
    <path clip-path="url(#pcc308bc9c0)" d="M 649.428099 492.48 
L 657.27758 488.049231 
L 665.127062 489.156923 
L 672.976543 485.833846 
L 680.826024 469.218462 
L 688.675506 468.110769 
L 696.524987 470.326154 
L 704.374468 473.649231 
L 712.223949 474.756923 
L 720.073431 472.541538 
L 727.922912 450.387692 
L 735.772393 432.664615 
L 743.621874 410.510769 
L 751.471356 401.649231 
L 759.320837 388.356923 
L 767.170318 388.356923 
L 775.0198 366.203077 
L 782.869281 355.126154 
L 790.718762 342.941538 
L 798.568243 349.587692 
L 806.417725 335.187692 
L 814.267206 326.326154 
L 822.116687 309.710769 
L 829.966168 289.772308 
L 837.81565 254.326154 
L 845.665131 232.172308 
L 853.514612 179.003077 
L 861.364094 140.233846 
L 869.213575 123.618462 
L 877.063056 136.910769 
L 884.912537 120.295385 
L 892.762019 124.726154 
L 900.6115 89.28 
L 908.460981 141.341538 
L 916.310462 147.987692 
L 924.159944 115.864615 
L 932.009425 142.449231 
L 939.858906 152.418462 
L 947.708388 154.633846 
L 955.557869 145.772308 
L 963.40735 160.172308 
L 971.256831 130.264615 
L 979.106313 130.264615 
L 986.955794 100.356923 
L 994.805275 112.541538 
L 1002.654756 123.618462 
L 1010.504238 111.433846 
L 1018.353719 145.772308 
" style="fill:none;stroke:#d3d3d3;stroke-linecap:square;stroke-width:1.5;"/>
   </g>
   <g id="line2d_52">
    <path clip-path="url(#pcc308bc9c0)" d="M 649.428099 465.895385 
L 657.27758 464.787692 
L 665.127062 465.895385 
L 672.976543 464.787692 
L 680.826024 461.464615 
L 688.675506 435.987692 
L 696.524987 401.649231 
L 704.374468 406.08 
L 712.223949 408.295385 
L 720.073431 410.510769 
L 727.922912 399.433846 
L 735.772393 412.726154 
L 743.621874 399.433846 
L 751.471356 389.464615 
L 759.320837 388.356923 
L 767.170318 409.403077 
L 775.0198 363.987692 
L 782.869281 358.449231 
L 790.718762 352.910769 
L 798.568243 342.941538 
L 806.417725 340.726154 
L 814.267206 330.756923 
L 822.116687 323.003077 
L 829.966168 313.033846 
L 837.81565 303.064615 
L 845.665131 299.741538 
L 853.514612 285.341538 
L 861.364094 279.803077 
L 869.213575 273.156923 
L 877.063056 291.987692 
L 884.912537 297.526154 
L 892.762019 315.249231 
L 900.6115 305.28 
L 908.460981 278.695385 
L 916.310462 258.756923 
L 924.159944 255.433846 
L 932.009425 269.833846 
L 939.858906 268.726154 
L 947.708388 249.895385 
L 955.557869 249.895385 
L 963.40735 251.003077 
L 971.256831 258.756923 
L 979.106313 272.049231 
L 986.955794 280.910769 
L 994.805275 284.233846 
L 1002.654756 284.233846 
L 1010.504238 287.556923 
L 1018.353719 284.233846 
" style="fill:none;stroke:#d3d3d3;stroke-linecap:square;stroke-width:1.5;"/>
   </g>
   <g id="line2d_53">
    <path clip-path="url(#pcc308bc9c0)" d="M 649.428099 469.218462 
L 657.27758 462.572308 
L 665.127062 461.464615 
L 672.976543 471.433846 
L 680.826024 460.356923 
L 688.675506 457.033846 
L 696.524987 441.526154 
L 704.374468 422.695385 
L 712.223949 424.910769 
L 720.073431 433.772308 
L 727.922912 433.772308 
L 735.772393 423.803077 
L 743.621874 410.510769 
L 751.471356 370.633846 
L 759.320837 352.910769 
L 767.170318 342.941538 
L 775.0198 335.187692 
L 782.869281 345.156923 
L 790.718762 361.772308 
L 798.568243 350.695385 
L 806.417725 349.587692 
L 814.267206 336.295385 
L 822.116687 248.787692 
L 829.966168 242.141538 
L 837.81565 257.649231 
L 845.665131 232.172308 
L 853.514612 219.987692 
L 861.364094 237.710769 
L 869.213575 243.249231 
L 877.063056 215.556923 
L 884.912537 208.910769 
L 892.762019 196.726154 
L 900.6115 175.68 
L 908.460981 183.433846 
L 916.310462 188.972308 
L 924.159944 147.987692 
L 932.009425 142.449231 
L 939.858906 175.68 
L 947.708388 181.218462 
L 955.557869 176.787692 
L 963.40735 162.387692 
L 971.256831 146.88 
L 979.106313 125.833846 
L 986.955794 151.310769 
L 994.805275 169.033846 
L 1002.654756 197.833846 
L 1010.504238 202.264615 
L 1018.353719 210.018462 
" style="fill:none;stroke:#0000ff;stroke-linecap:square;stroke-width:1.5;"/>
   </g>
   <g id="line2d_54">
    <path clip-path="url(#pcc308bc9c0)" d="M 649.428099 445.956923 
L 657.27758 447.618462 
L 665.127062 449.28 
L 672.976543 448.172308 
L 680.826024 435.433846 
L 688.675506 435.433846 
L 696.524987 435.433846 
L 704.374468 435.433846 
L 712.223949 435.433846 
L 720.073431 430.449231 
L 727.922912 411.618462 
L 735.772393 408.295385 
L 743.621874 400.541538 
L 751.471356 391.126154 
L 759.320837 388.910769 
L 767.170318 368.972308 
L 775.0198 358.449231 
L 782.869281 353.464615 
L 790.718762 344.603077 
L 798.568243 335.741538 
L 806.417725 323.556923 
L 814.267206 306.387692 
L 822.116687 291.987692 
L 829.966168 278.141538 
L 837.81565 244.356923 
L 845.665131 224.418462 
L 853.514612 196.726154 
L 861.364094 188.418462 
L 869.213575 176.233846 
L 877.063056 162.387692 
L 884.912537 154.08 
L 892.762019 153.526154 
L 900.6115 154.08 
L 908.460981 154.08 
L 916.310462 154.633846 
L 924.159944 173.464615 
L 932.009425 185.095385 
L 939.858906 185.095385 
L 947.708388 181.218462 
L 955.557869 183.433846 
L 963.40735 186.756923 
L 971.256831 191.741538 
L 979.106313 201.156923 
L 986.955794 205.587692 
L 994.805275 207.803077 
L 1002.654756 207.249231 
L 1010.504238 213.341538 
L 1018.353719 229.403077 
" style="fill:none;stroke:#ff0000;stroke-linecap:square;stroke-width:1.5;"/>
   </g>
   <g id="line2d_55">
    <path clip-path="url(#pcc308bc9c0)" d="M 833.890909 512.64 
L 833.890909 69.12 
" style="fill:none;stroke:#000000;stroke-dasharray:5.55,2.4;stroke-dashoffset:0;stroke-width:1.5;"/>
   </g>
   <g id="patch_9">
    <path d="M 630.981818 512.64 
L 630.981818 69.12 
" style="fill:none;stroke:#000000;stroke-linecap:square;stroke-linejoin:miter;stroke-width:0.8;"/>
   </g>
   <g id="patch_10">
    <path d="M 1036.8 512.64 
L 1036.8 69.12 
" style="fill:none;stroke:#000000;stroke-linecap:square;stroke-linejoin:miter;stroke-width:0.8;"/>
   </g>
   <g id="patch_11">
    <path d="M 630.981818 512.64 
L 1036.8 512.64 
" style="fill:none;stroke:#000000;stroke-linecap:square;stroke-linejoin:miter;stroke-width:0.8;"/>
   </g>
   <g id="patch_12">
    <path d="M 630.981818 69.12 
L 1036.8 69.12 
" style="fill:none;stroke:#000000;stroke-linecap:square;stroke-linejoin:miter;stroke-width:0.8;"/>
   </g>
   <g id="legend_2">
    <g id="patch_13">
     <path d="M 640.781818 121.41875 
L 810.496818 121.41875 
Q 813.296818 121.41875 813.296818 118.61875 
L 813.296818 78.92 
Q 813.296818 76.12 810.496818 76.12 
L 640.781818 76.12 
Q 637.981818 76.12 637.981818 78.92 
L 637.981818 118.61875 
Q 637.981818 121.41875 640.781818 121.41875 
z
" style="fill:#ffffff;opacity:0.8;stroke:#cccccc;stroke-linejoin:miter;"/>
    </g>
    <g id="line2d_56">
     <path d="M 643.581818 87.457813 
L 671.581818 87.457813 
" style="fill:none;stroke:#0000ff;stroke-linecap:square;stroke-width:1.5;"/>
    </g>
    <g id="line2d_57"/>
    <g id="text_32">
     <!-- Observation -->
     <g transform="translate(682.781818 92.357813)scale(0.14 -0.14)">
      <use xlink:href="#DejaVuSans-79"/>
      <use x="78.710938" xlink:href="#DejaVuSans-98"/>
      <use x="142.1875" xlink:href="#DejaVuSans-115"/>
      <use x="194.287109" xlink:href="#DejaVuSans-101"/>
      <use x="255.810547" xlink:href="#DejaVuSans-114"/>
      <use x="296.923828" xlink:href="#DejaVuSans-118"/>
      <use x="356.103516" xlink:href="#DejaVuSans-97"/>
      <use x="417.382812" xlink:href="#DejaVuSans-116"/>
      <use x="456.591797" xlink:href="#DejaVuSans-105"/>
      <use x="484.375" xlink:href="#DejaVuSans-111"/>
      <use x="545.556641" xlink:href="#DejaVuSans-110"/>
     </g>
    </g>
    <g id="line2d_58">
     <path d="M 643.581818 108.007188 
L 671.581818 108.007188 
" style="fill:none;stroke:#ff0000;stroke-linecap:square;stroke-width:1.5;"/>
    </g>
    <g id="line2d_59"/>
    <g id="text_33">
     <!-- Median Prediction -->
     <g transform="translate(682.781818 112.907188)scale(0.14 -0.14)">
      <use xlink:href="#DejaVuSans-77"/>
      <use x="86.279297" xlink:href="#DejaVuSans-101"/>
      <use x="147.802734" xlink:href="#DejaVuSans-100"/>
      <use x="211.279297" xlink:href="#DejaVuSans-105"/>
      <use x="239.0625" xlink:href="#DejaVuSans-97"/>
      <use x="300.341797" xlink:href="#DejaVuSans-110"/>
      <use x="363.720703" xlink:href="#DejaVuSans-32"/>
      <use x="395.507812" xlink:href="#DejaVuSans-80"/>
      <use x="454.060547" xlink:href="#DejaVuSans-114"/>
      <use x="492.923828" xlink:href="#DejaVuSans-101"/>
      <use x="554.447266" xlink:href="#DejaVuSans-100"/>
      <use x="617.923828" xlink:href="#DejaVuSans-105"/>
      <use x="645.707031" xlink:href="#DejaVuSans-99"/>
      <use x="700.6875" xlink:href="#DejaVuSans-116"/>
      <use x="739.896484" xlink:href="#DejaVuSans-105"/>
      <use x="767.679688" xlink:href="#DejaVuSans-111"/>
      <use x="828.861328" xlink:href="#DejaVuSans-110"/>
     </g>
    </g>
   </g>
  </g>
  <g id="text_34">
   <!-- Forecast: 2017-12-05 10:00:00 -->
   <defs>
    <path d="M 11.71875 12.40625 
L 22.015625 12.40625 
L 22.015625 0 
L 11.71875 0 
z
M 11.71875 51.703125 
L 22.015625 51.703125 
L 22.015625 39.3125 
L 11.71875 39.3125 
z
" id="DejaVuSans-58"/>
    <path d="M 4.890625 31.390625 
L 31.203125 31.390625 
L 31.203125 23.390625 
L 4.890625 23.390625 
z
" id="DejaVuSans-45"/>
   </defs>
   <g transform="translate(420.94375 26.716875)scale(0.2 -0.2)">
    <use xlink:href="#DejaVuSans-70"/>
    <use x="53.894531" xlink:href="#DejaVuSans-111"/>
    <use x="115.076172" xlink:href="#DejaVuSans-114"/>
    <use x="153.939453" xlink:href="#DejaVuSans-101"/>
    <use x="215.462891" xlink:href="#DejaVuSans-99"/>
    <use x="270.443359" xlink:href="#DejaVuSans-97"/>
    <use x="331.722656" xlink:href="#DejaVuSans-115"/>
    <use x="383.822266" xlink:href="#DejaVuSans-116"/>
    <use x="423.03125" xlink:href="#DejaVuSans-58"/>
    <use x="456.722656" xlink:href="#DejaVuSans-32"/>
    <use x="488.509766" xlink:href="#DejaVuSans-50"/>
    <use x="552.132812" xlink:href="#DejaVuSans-48"/>
    <use x="615.755859" xlink:href="#DejaVuSans-49"/>
    <use x="679.378906" xlink:href="#DejaVuSans-55"/>
    <use x="743.001953" xlink:href="#DejaVuSans-45"/>
    <use x="779.085938" xlink:href="#DejaVuSans-49"/>
    <use x="842.708984" xlink:href="#DejaVuSans-50"/>
    <use x="906.332031" xlink:href="#DejaVuSans-45"/>
    <use x="942.416016" xlink:href="#DejaVuSans-48"/>
    <use x="1006.039062" xlink:href="#DejaVuSans-53"/>
    <use x="1069.662109" xlink:href="#DejaVuSans-32"/>
    <use x="1101.449219" xlink:href="#DejaVuSans-49"/>
    <use x="1165.072266" xlink:href="#DejaVuSans-48"/>
    <use x="1228.695312" xlink:href="#DejaVuSans-58"/>
    <use x="1262.386719" xlink:href="#DejaVuSans-48"/>
    <use x="1326.009766" xlink:href="#DejaVuSans-48"/>
    <use x="1389.632812" xlink:href="#DejaVuSans-58"/>
    <use x="1423.324219" xlink:href="#DejaVuSans-48"/>
    <use x="1486.947266" xlink:href="#DejaVuSans-48"/>
   </g>
  </g>
 </g>
 <defs>
  <clipPath id="p600d38de5e">
   <rect height="443.52" width="405.818182" x="144" y="69.12"/>
  </clipPath>
  <clipPath id="pcc308bc9c0">
   <rect height="443.52" width="405.818182" x="630.981818" y="69.12"/>
  </clipPath>
 </defs>
</svg>
