<?xml version="1.0" encoding="utf-8" standalone="no"?>
<!DOCTYPE svg PUBLIC "-//W3C//DTD SVG 1.1//EN"
  "http://www.w3.org/Graphics/SVG/1.1/DTD/svg11.dtd">
<!-- Created with matplotlib (https://matplotlib.org/) -->
<svg height="360pt" version="1.1" viewBox="0 0 720 360" width="720pt" xmlns="http://www.w3.org/2000/svg" xmlns:xlink="http://www.w3.org/1999/xlink">
 <defs>
  <style type="text/css">
*{stroke-linecap:butt;stroke-linejoin:round;}
  </style>
 </defs>
 <g id="figure_1">
  <g id="patch_1">
   <path d="M 0 360 
L 720 360 
L 720 0 
L 0 0 
z
" style="fill:#ffffff;"/>
  </g>
  <g id="axes_1">
   <g id="patch_2">
    <path d="M 90 320.4 
L 343.636364 320.4 
L 343.636364 43.2 
L 90 43.2 
z
" style="fill:#ffffff;"/>
   </g>
   <g id="matplotlib.axis_1">
    <g id="xtick_1">
     <g id="line2d_1">
      <defs>
       <path d="M 0 0 
L 0 3.5 
" id="m531ccf195e" style="stroke:#000000;stroke-width:0.8;"/>
      </defs>
      <g>
       <use style="stroke:#000000;stroke-width:0.8;" x="111.554078" xlink:href="#m531ccf195e" y="320.4"/>
      </g>
     </g>
     <g id="text_1">
      <!-- −20 -->
      <defs>
       <path d="M 10.59375 35.5 
L 73.1875 35.5 
L 73.1875 27.203125 
L 10.59375 27.203125 
z
" id="DejaVuSans-8722"/>
       <path d="M 19.1875 8.296875 
L 53.609375 8.296875 
L 53.609375 0 
L 7.328125 0 
L 7.328125 8.296875 
Q 12.9375 14.109375 22.625 23.890625 
Q 32.328125 33.6875 34.8125 36.53125 
Q 39.546875 41.84375 41.421875 45.53125 
Q 43.3125 49.21875 43.3125 52.78125 
Q 43.3125 58.59375 39.234375 62.25 
Q 35.15625 65.921875 28.609375 65.921875 
Q 23.96875 65.921875 18.8125 64.3125 
Q 13.671875 62.703125 7.8125 59.421875 
L 7.8125 69.390625 
Q 13.765625 71.78125 18.9375 73 
Q 24.125 74.21875 28.421875 74.21875 
Q 39.75 74.21875 46.484375 68.546875 
Q 53.21875 62.890625 53.21875 53.421875 
Q 53.21875 48.921875 51.53125 44.890625 
Q 49.859375 40.875 45.40625 35.40625 
Q 44.1875 33.984375 37.640625 27.21875 
Q 31.109375 20.453125 19.1875 8.296875 
z
" id="DejaVuSans-50"/>
       <path d="M 31.78125 66.40625 
Q 24.171875 66.40625 20.328125 58.90625 
Q 16.5 51.421875 16.5 36.375 
Q 16.5 21.390625 20.328125 13.890625 
Q 24.171875 6.390625 31.78125 6.390625 
Q 39.453125 6.390625 43.28125 13.890625 
Q 47.125 21.390625 47.125 36.375 
Q 47.125 51.421875 43.28125 58.90625 
Q 39.453125 66.40625 31.78125 66.40625 
z
M 31.78125 74.21875 
Q 44.046875 74.21875 50.515625 64.515625 
Q 56.984375 54.828125 56.984375 36.375 
Q 56.984375 17.96875 50.515625 8.265625 
Q 44.046875 -1.421875 31.78125 -1.421875 
Q 19.53125 -1.421875 13.0625 8.265625 
Q 6.59375 17.96875 6.59375 36.375 
Q 6.59375 54.828125 13.0625 64.515625 
Q 19.53125 74.21875 31.78125 74.21875 
z
" id="DejaVuSans-48"/>
      </defs>
      <g transform="translate(101.001735 334.998438)scale(0.1 -0.1)">
       <use xlink:href="#DejaVuSans-8722"/>
       <use x="83.789062" xlink:href="#DejaVuSans-50"/>
       <use x="147.412109" xlink:href="#DejaVuSans-48"/>
      </g>
     </g>
    </g>
    <g id="xtick_2">
     <g id="line2d_2">
      <g>
       <use style="stroke:#000000;stroke-width:0.8;" x="161.679842" xlink:href="#m531ccf195e" y="320.4"/>
      </g>
     </g>
     <g id="text_2">
      <!-- −10 -->
      <defs>
       <path d="M 12.40625 8.296875 
L 28.515625 8.296875 
L 28.515625 63.921875 
L 10.984375 60.40625 
L 10.984375 69.390625 
L 28.421875 72.90625 
L 38.28125 72.90625 
L 38.28125 8.296875 
L 54.390625 8.296875 
L 54.390625 0 
L 12.40625 0 
z
" id="DejaVuSans-49"/>
      </defs>
      <g transform="translate(151.127498 334.998438)scale(0.1 -0.1)">
       <use xlink:href="#DejaVuSans-8722"/>
       <use x="83.789062" xlink:href="#DejaVuSans-49"/>
       <use x="147.412109" xlink:href="#DejaVuSans-48"/>
      </g>
     </g>
    </g>
    <g id="xtick_3">
     <g id="line2d_3">
      <g>
       <use style="stroke:#000000;stroke-width:0.8;" x="211.805605" xlink:href="#m531ccf195e" y="320.4"/>
      </g>
     </g>
     <g id="text_3">
      <!-- 0 -->
      <g transform="translate(208.624355 334.998438)scale(0.1 -0.1)">
       <use xlink:href="#DejaVuSans-48"/>
      </g>
     </g>
    </g>
    <g id="xtick_4">
     <g id="line2d_4">
      <g>
       <use style="stroke:#000000;stroke-width:0.8;" x="261.931369" xlink:href="#m531ccf195e" y="320.4"/>
      </g>
     </g>
     <g id="text_4">
      <!-- 10 -->
      <g transform="translate(255.568869 334.998438)scale(0.1 -0.1)">
       <use xlink:href="#DejaVuSans-49"/>
       <use x="63.623047" xlink:href="#DejaVuSans-48"/>
      </g>
     </g>
    </g>
    <g id="xtick_5">
     <g id="line2d_5">
      <g>
       <use style="stroke:#000000;stroke-width:0.8;" x="312.057133" xlink:href="#m531ccf195e" y="320.4"/>
      </g>
     </g>
     <g id="text_5">
      <!-- 20 -->
      <g transform="translate(305.694633 334.998438)scale(0.1 -0.1)">
       <use xlink:href="#DejaVuSans-50"/>
       <use x="63.623047" xlink:href="#DejaVuSans-48"/>
      </g>
     </g>
    </g>
    <g id="text_6">
     <!-- Time from $t_0$ (hours) -->
     <defs>
      <path d="M -0.296875 72.90625 
L 61.375 72.90625 
L 61.375 64.59375 
L 35.5 64.59375 
L 35.5 0 
L 25.59375 0 
L 25.59375 64.59375 
L -0.296875 64.59375 
z
" id="DejaVuSans-84"/>
      <path d="M 9.421875 54.6875 
L 18.40625 54.6875 
L 18.40625 0 
L 9.421875 0 
z
M 9.421875 75.984375 
L 18.40625 75.984375 
L 18.40625 64.59375 
L 9.421875 64.59375 
z
" id="DejaVuSans-105"/>
      <path d="M 52 44.1875 
Q 55.375 50.25 60.0625 53.125 
Q 64.75 56 71.09375 56 
Q 79.640625 56 84.28125 50.015625 
Q 88.921875 44.046875 88.921875 33.015625 
L 88.921875 0 
L 79.890625 0 
L 79.890625 32.71875 
Q 79.890625 40.578125 77.09375 44.375 
Q 74.3125 48.1875 68.609375 48.1875 
Q 61.625 48.1875 57.5625 43.546875 
Q 53.515625 38.921875 53.515625 30.90625 
L 53.515625 0 
L 44.484375 0 
L 44.484375 32.71875 
Q 44.484375 40.625 41.703125 44.40625 
Q 38.921875 48.1875 33.109375 48.1875 
Q 26.21875 48.1875 22.15625 43.53125 
Q 18.109375 38.875 18.109375 30.90625 
L 18.109375 0 
L 9.078125 0 
L 9.078125 54.6875 
L 18.109375 54.6875 
L 18.109375 46.1875 
Q 21.1875 51.21875 25.484375 53.609375 
Q 29.78125 56 35.6875 56 
Q 41.65625 56 45.828125 52.96875 
Q 50 49.953125 52 44.1875 
z
" id="DejaVuSans-109"/>
      <path d="M 56.203125 29.59375 
L 56.203125 25.203125 
L 14.890625 25.203125 
Q 15.484375 15.921875 20.484375 11.0625 
Q 25.484375 6.203125 34.421875 6.203125 
Q 39.59375 6.203125 44.453125 7.46875 
Q 49.3125 8.734375 54.109375 11.28125 
L 54.109375 2.78125 
Q 49.265625 0.734375 44.1875 -0.34375 
Q 39.109375 -1.421875 33.890625 -1.421875 
Q 20.796875 -1.421875 13.15625 6.1875 
Q 5.515625 13.8125 5.515625 26.8125 
Q 5.515625 40.234375 12.765625 48.109375 
Q 20.015625 56 32.328125 56 
Q 43.359375 56 49.78125 48.890625 
Q 56.203125 41.796875 56.203125 29.59375 
z
M 47.21875 32.234375 
Q 47.125 39.59375 43.09375 43.984375 
Q 39.0625 48.390625 32.421875 48.390625 
Q 24.90625 48.390625 20.390625 44.140625 
Q 15.875 39.890625 15.1875 32.171875 
z
" id="DejaVuSans-101"/>
      <path id="DejaVuSans-32"/>
      <path d="M 37.109375 75.984375 
L 37.109375 68.5 
L 28.515625 68.5 
Q 23.6875 68.5 21.796875 66.546875 
Q 19.921875 64.59375 19.921875 59.515625 
L 19.921875 54.6875 
L 34.71875 54.6875 
L 34.71875 47.703125 
L 19.921875 47.703125 
L 19.921875 0 
L 10.890625 0 
L 10.890625 47.703125 
L 2.296875 47.703125 
L 2.296875 54.6875 
L 10.890625 54.6875 
L 10.890625 58.5 
Q 10.890625 67.625 15.140625 71.796875 
Q 19.390625 75.984375 28.609375 75.984375 
z
" id="DejaVuSans-102"/>
      <path d="M 41.109375 46.296875 
Q 39.59375 47.171875 37.8125 47.578125 
Q 36.03125 48 33.890625 48 
Q 26.265625 48 22.1875 43.046875 
Q 18.109375 38.09375 18.109375 28.8125 
L 18.109375 0 
L 9.078125 0 
L 9.078125 54.6875 
L 18.109375 54.6875 
L 18.109375 46.1875 
Q 20.953125 51.171875 25.484375 53.578125 
Q 30.03125 56 36.53125 56 
Q 37.453125 56 38.578125 55.875 
Q 39.703125 55.765625 41.0625 55.515625 
z
" id="DejaVuSans-114"/>
      <path d="M 30.609375 48.390625 
Q 23.390625 48.390625 19.1875 42.75 
Q 14.984375 37.109375 14.984375 27.296875 
Q 14.984375 17.484375 19.15625 11.84375 
Q 23.34375 6.203125 30.609375 6.203125 
Q 37.796875 6.203125 41.984375 11.859375 
Q 46.1875 17.53125 46.1875 27.296875 
Q 46.1875 37.015625 41.984375 42.703125 
Q 37.796875 48.390625 30.609375 48.390625 
z
M 30.609375 56 
Q 42.328125 56 49.015625 48.375 
Q 55.71875 40.765625 55.71875 27.296875 
Q 55.71875 13.875 49.015625 6.21875 
Q 42.328125 -1.421875 30.609375 -1.421875 
Q 18.84375 -1.421875 12.171875 6.21875 
Q 5.515625 13.875 5.515625 27.296875 
Q 5.515625 40.765625 12.171875 48.375 
Q 18.84375 56 30.609375 56 
z
" id="DejaVuSans-111"/>
      <path d="M 42.28125 54.6875 
L 40.921875 47.703125 
L 23 47.703125 
L 17.1875 18.015625 
Q 16.890625 16.359375 16.75 15.234375 
Q 16.609375 14.109375 16.609375 13.484375 
Q 16.609375 10.359375 18.484375 8.9375 
Q 20.359375 7.515625 24.515625 7.515625 
L 33.59375 7.515625 
L 32.078125 0 
L 23.484375 0 
Q 15.484375 0 11.546875 3.125 
Q 7.625 6.25 7.625 12.59375 
Q 7.625 13.71875 7.765625 15.0625 
Q 7.90625 16.40625 8.203125 18.015625 
L 14.015625 47.703125 
L 6.390625 47.703125 
L 7.8125 54.6875 
L 15.28125 54.6875 
L 18.3125 70.21875 
L 27.296875 70.21875 
L 24.3125 54.6875 
z
" id="DejaVuSans-Oblique-116"/>
      <path d="M 31 75.875 
Q 24.46875 64.65625 21.28125 53.65625 
Q 18.109375 42.671875 18.109375 31.390625 
Q 18.109375 20.125 21.3125 9.0625 
Q 24.515625 -2 31 -13.1875 
L 23.1875 -13.1875 
Q 15.875 -1.703125 12.234375 9.375 
Q 8.59375 20.453125 8.59375 31.390625 
Q 8.59375 42.28125 12.203125 53.3125 
Q 15.828125 64.359375 23.1875 75.875 
z
" id="DejaVuSans-40"/>
      <path d="M 54.890625 33.015625 
L 54.890625 0 
L 45.90625 0 
L 45.90625 32.71875 
Q 45.90625 40.484375 42.875 44.328125 
Q 39.84375 48.1875 33.796875 48.1875 
Q 26.515625 48.1875 22.3125 43.546875 
Q 18.109375 38.921875 18.109375 30.90625 
L 18.109375 0 
L 9.078125 0 
L 9.078125 75.984375 
L 18.109375 75.984375 
L 18.109375 46.1875 
Q 21.34375 51.125 25.703125 53.5625 
Q 30.078125 56 35.796875 56 
Q 45.21875 56 50.046875 50.171875 
Q 54.890625 44.34375 54.890625 33.015625 
z
" id="DejaVuSans-104"/>
      <path d="M 8.5 21.578125 
L 8.5 54.6875 
L 17.484375 54.6875 
L 17.484375 21.921875 
Q 17.484375 14.15625 20.5 10.265625 
Q 23.53125 6.390625 29.59375 6.390625 
Q 36.859375 6.390625 41.078125 11.03125 
Q 45.3125 15.671875 45.3125 23.6875 
L 45.3125 54.6875 
L 54.296875 54.6875 
L 54.296875 0 
L 45.3125 0 
L 45.3125 8.40625 
Q 42.046875 3.421875 37.71875 1 
Q 33.40625 -1.421875 27.6875 -1.421875 
Q 18.265625 -1.421875 13.375 4.4375 
Q 8.5 10.296875 8.5 21.578125 
z
M 31.109375 56 
z
" id="DejaVuSans-117"/>
      <path d="M 44.28125 53.078125 
L 44.28125 44.578125 
Q 40.484375 46.53125 36.375 47.5 
Q 32.28125 48.484375 27.875 48.484375 
Q 21.1875 48.484375 17.84375 46.4375 
Q 14.5 44.390625 14.5 40.28125 
Q 14.5 37.15625 16.890625 35.375 
Q 19.28125 33.59375 26.515625 31.984375 
L 29.59375 31.296875 
Q 39.15625 29.25 43.1875 25.515625 
Q 47.21875 21.78125 47.21875 15.09375 
Q 47.21875 7.46875 41.1875 3.015625 
Q 35.15625 -1.421875 24.609375 -1.421875 
Q 20.21875 -1.421875 15.453125 -0.5625 
Q 10.6875 0.296875 5.421875 2 
L 5.421875 11.28125 
Q 10.40625 8.6875 15.234375 7.390625 
Q 20.0625 6.109375 24.8125 6.109375 
Q 31.15625 6.109375 34.5625 8.28125 
Q 37.984375 10.453125 37.984375 14.40625 
Q 37.984375 18.0625 35.515625 20.015625 
Q 33.0625 21.96875 24.703125 23.78125 
L 21.578125 24.515625 
Q 13.234375 26.265625 9.515625 29.90625 
Q 5.8125 33.546875 5.8125 39.890625 
Q 5.8125 47.609375 11.28125 51.796875 
Q 16.75 56 26.8125 56 
Q 31.78125 56 36.171875 55.265625 
Q 40.578125 54.546875 44.28125 53.078125 
z
" id="DejaVuSans-115"/>
      <path d="M 8.015625 75.875 
L 15.828125 75.875 
Q 23.140625 64.359375 26.78125 53.3125 
Q 30.421875 42.28125 30.421875 31.390625 
Q 30.421875 20.453125 26.78125 9.375 
Q 23.140625 -1.703125 15.828125 -13.1875 
L 8.015625 -13.1875 
Q 14.5 -2 17.703125 9.0625 
Q 20.90625 20.125 20.90625 31.390625 
Q 20.90625 42.671875 17.703125 53.65625 
Q 14.5 64.65625 8.015625 75.875 
z
" id="DejaVuSans-41"/>
     </defs>
     <g transform="translate(165.618182 348.676562)scale(0.1 -0.1)">
      <use transform="translate(0 0.015625)" xlink:href="#DejaVuSans-84"/>
      <use transform="translate(61.083984 0.015625)" xlink:href="#DejaVuSans-105"/>
      <use transform="translate(88.867188 0.015625)" xlink:href="#DejaVuSans-109"/>
      <use transform="translate(186.279297 0.015625)" xlink:href="#DejaVuSans-101"/>
      <use transform="translate(247.802734 0.015625)" xlink:href="#DejaVuSans-32"/>
      <use transform="translate(279.589844 0.015625)" xlink:href="#DejaVuSans-102"/>
      <use transform="translate(314.794922 0.015625)" xlink:href="#DejaVuSans-114"/>
      <use transform="translate(355.908203 0.015625)" xlink:href="#DejaVuSans-111"/>
      <use transform="translate(417.089844 0.015625)" xlink:href="#DejaVuSans-109"/>
      <use transform="translate(514.501953 0.015625)" xlink:href="#DejaVuSans-32"/>
      <use transform="translate(546.289062 0.015625)" xlink:href="#DejaVuSans-Oblique-116"/>
      <use transform="translate(585.498047 -16.390625)scale(0.7)" xlink:href="#DejaVuSans-48"/>
      <use transform="translate(632.768555 0.015625)" xlink:href="#DejaVuSans-32"/>
      <use transform="translate(664.555664 0.015625)" xlink:href="#DejaVuSans-40"/>
      <use transform="translate(703.569336 0.015625)" xlink:href="#DejaVuSans-104"/>
      <use transform="translate(766.948242 0.015625)" xlink:href="#DejaVuSans-111"/>
      <use transform="translate(828.129883 0.015625)" xlink:href="#DejaVuSans-117"/>
      <use transform="translate(891.508789 0.015625)" xlink:href="#DejaVuSans-114"/>
      <use transform="translate(932.62207 0.015625)" xlink:href="#DejaVuSans-115"/>
      <use transform="translate(984.72168 0.015625)" xlink:href="#DejaVuSans-41"/>
     </g>
    </g>
   </g>
   <g id="matplotlib.axis_2">
    <g id="ytick_1">
     <g id="line2d_6">
      <defs>
       <path d="M 0 0 
L -3.5 0 
" id="m2617e0c58b" style="stroke:#000000;stroke-width:0.8;"/>
      </defs>
      <g>
       <use style="stroke:#000000;stroke-width:0.8;" x="90" xlink:href="#m2617e0c58b" y="306.856176"/>
      </g>
     </g>
     <g id="text_7">
      <!-- −6 -->
      <defs>
       <path d="M 33.015625 40.375 
Q 26.375 40.375 22.484375 35.828125 
Q 18.609375 31.296875 18.609375 23.390625 
Q 18.609375 15.53125 22.484375 10.953125 
Q 26.375 6.390625 33.015625 6.390625 
Q 39.65625 6.390625 43.53125 10.953125 
Q 47.40625 15.53125 47.40625 23.390625 
Q 47.40625 31.296875 43.53125 35.828125 
Q 39.65625 40.375 33.015625 40.375 
z
M 52.59375 71.296875 
L 52.59375 62.3125 
Q 48.875 64.0625 45.09375 64.984375 
Q 41.3125 65.921875 37.59375 65.921875 
Q 27.828125 65.921875 22.671875 59.328125 
Q 17.53125 52.734375 16.796875 39.40625 
Q 19.671875 43.65625 24.015625 45.921875 
Q 28.375 48.1875 33.59375 48.1875 
Q 44.578125 48.1875 50.953125 41.515625 
Q 57.328125 34.859375 57.328125 23.390625 
Q 57.328125 12.15625 50.6875 5.359375 
Q 44.046875 -1.421875 33.015625 -1.421875 
Q 20.359375 -1.421875 13.671875 8.265625 
Q 6.984375 17.96875 6.984375 36.375 
Q 6.984375 53.65625 15.1875 63.9375 
Q 23.390625 74.21875 37.203125 74.21875 
Q 40.921875 74.21875 44.703125 73.484375 
Q 48.484375 72.75 52.59375 71.296875 
z
" id="DejaVuSans-54"/>
      </defs>
      <g transform="translate(68.257812 310.655395)scale(0.1 -0.1)">
       <use xlink:href="#DejaVuSans-8722"/>
       <use x="83.789062" xlink:href="#DejaVuSans-54"/>
      </g>
     </g>
    </g>
    <g id="ytick_2">
     <g id="line2d_7">
      <g>
       <use style="stroke:#000000;stroke-width:0.8;" x="90" xlink:href="#m2617e0c58b" y="269.103368"/>
      </g>
     </g>
     <g id="text_8">
      <!-- −4 -->
      <defs>
       <path d="M 37.796875 64.3125 
L 12.890625 25.390625 
L 37.796875 25.390625 
z
M 35.203125 72.90625 
L 47.609375 72.90625 
L 47.609375 25.390625 
L 58.015625 25.390625 
L 58.015625 17.1875 
L 47.609375 17.1875 
L 47.609375 0 
L 37.796875 0 
L 37.796875 17.1875 
L 4.890625 17.1875 
L 4.890625 26.703125 
z
" id="DejaVuSans-52"/>
      </defs>
      <g transform="translate(68.257812 272.902587)scale(0.1 -0.1)">
       <use xlink:href="#DejaVuSans-8722"/>
       <use x="83.789062" xlink:href="#DejaVuSans-52"/>
      </g>
     </g>
    </g>
    <g id="ytick_3">
     <g id="line2d_8">
      <g>
       <use style="stroke:#000000;stroke-width:0.8;" x="90" xlink:href="#m2617e0c58b" y="231.35056"/>
      </g>
     </g>
     <g id="text_9">
      <!-- −2 -->
      <g transform="translate(68.257812 235.149779)scale(0.1 -0.1)">
       <use xlink:href="#DejaVuSans-8722"/>
       <use x="83.789062" xlink:href="#DejaVuSans-50"/>
      </g>
     </g>
    </g>
    <g id="ytick_4">
     <g id="line2d_9">
      <g>
       <use style="stroke:#000000;stroke-width:0.8;" x="90" xlink:href="#m2617e0c58b" y="193.597752"/>
      </g>
     </g>
     <g id="text_10">
      <!-- 0 -->
      <g transform="translate(76.6375 197.396971)scale(0.1 -0.1)">
       <use xlink:href="#DejaVuSans-48"/>
      </g>
     </g>
    </g>
    <g id="ytick_5">
     <g id="line2d_10">
      <g>
       <use style="stroke:#000000;stroke-width:0.8;" x="90" xlink:href="#m2617e0c58b" y="155.844945"/>
      </g>
     </g>
     <g id="text_11">
      <!-- 2 -->
      <g transform="translate(76.6375 159.644163)scale(0.1 -0.1)">
       <use xlink:href="#DejaVuSans-50"/>
      </g>
     </g>
    </g>
    <g id="ytick_6">
     <g id="line2d_11">
      <g>
       <use style="stroke:#000000;stroke-width:0.8;" x="90" xlink:href="#m2617e0c58b" y="118.092137"/>
      </g>
     </g>
     <g id="text_12">
      <!-- 4 -->
      <g transform="translate(76.6375 121.891355)scale(0.1 -0.1)">
       <use xlink:href="#DejaVuSans-52"/>
      </g>
     </g>
    </g>
    <g id="ytick_7">
     <g id="line2d_12">
      <g>
       <use style="stroke:#000000;stroke-width:0.8;" x="90" xlink:href="#m2617e0c58b" y="80.339329"/>
      </g>
     </g>
     <g id="text_13">
      <!-- 6 -->
      <g transform="translate(76.6375 84.138547)scale(0.1 -0.1)">
       <use xlink:href="#DejaVuSans-54"/>
      </g>
     </g>
    </g>
    <g id="text_14">
     <!-- $B_r (nT)$ -->
     <defs>
      <path d="M 16.890625 72.90625 
L 42.09375 72.90625 
Q 52.34375 72.90625 57.421875 69.09375 
Q 62.5 65.28125 62.5 57.625 
Q 62.5 50.59375 58.125 45.484375 
Q 53.765625 40.375 46.6875 39.3125 
Q 52.734375 37.9375 55.765625 34.078125 
Q 58.796875 30.21875 58.796875 23.78125 
Q 58.796875 12.796875 50.65625 6.390625 
Q 42.53125 0 28.421875 0 
L 2.6875 0 
z
M 19.28125 34.8125 
L 14.109375 8.109375 
L 29.984375 8.109375 
Q 38.921875 8.109375 43.75 12.203125 
Q 48.578125 16.3125 48.578125 23.78125 
Q 48.578125 29.546875 45.375 32.171875 
Q 42.1875 34.8125 35.109375 34.8125 
z
M 25.09375 64.796875 
L 20.796875 42.828125 
L 35.5 42.828125 
Q 43.359375 42.828125 47.78125 46.234375 
Q 52.203125 49.65625 52.203125 55.71875 
Q 52.203125 60.453125 49.21875 62.625 
Q 46.234375 64.796875 39.703125 64.796875 
z
" id="DejaVuSans-Oblique-66"/>
      <path d="M 44.578125 46.390625 
Q 43.21875 47.125 41.453125 47.515625 
Q 39.703125 47.90625 37.703125 47.90625 
Q 30.515625 47.90625 25.140625 42.453125 
Q 19.78125 37.015625 18.015625 27.875 
L 12.5 0 
L 3.515625 0 
L 14.203125 54.6875 
L 23.1875 54.6875 
L 21.484375 46.1875 
Q 25.046875 50.921875 30 53.453125 
Q 34.96875 56 40.578125 56 
Q 42.046875 56 43.453125 55.828125 
Q 44.875 55.671875 46.296875 55.28125 
z
" id="DejaVuSans-Oblique-114"/>
      <path d="M 55.71875 33.015625 
L 49.3125 0 
L 40.28125 0 
L 46.6875 32.671875 
Q 47.125 34.96875 47.359375 36.71875 
Q 47.609375 38.484375 47.609375 39.5 
Q 47.609375 43.609375 45.015625 45.890625 
Q 42.4375 48.1875 37.796875 48.1875 
Q 30.5625 48.1875 25.34375 43.375 
Q 20.125 38.578125 18.5 30.328125 
L 12.5 0 
L 3.515625 0 
L 14.109375 54.6875 
L 23.09375 54.6875 
L 21.296875 46.09375 
Q 25.046875 50.828125 30.3125 53.40625 
Q 35.59375 56 41.40625 56 
Q 48.640625 56 52.609375 52.09375 
Q 56.59375 48.1875 56.59375 41.109375 
Q 56.59375 39.359375 56.375 37.359375 
Q 56.15625 35.359375 55.71875 33.015625 
z
" id="DejaVuSans-Oblique-110"/>
      <path d="M 5.90625 72.90625 
L 67.578125 72.90625 
L 66.015625 64.59375 
L 39.984375 64.59375 
L 27.484375 0 
L 17.578125 0 
L 30.078125 64.59375 
L 4.296875 64.59375 
z
" id="DejaVuSans-Oblique-84"/>
     </defs>
     <g transform="translate(62.178125 196.95)rotate(-90)scale(0.1 -0.1)">
      <use transform="translate(0 0.125)" xlink:href="#DejaVuSans-Oblique-66"/>
      <use transform="translate(68.603516 -16.28125)scale(0.7)" xlink:href="#DejaVuSans-Oblique-114"/>
      <use transform="translate(100.117188 0.125)" xlink:href="#DejaVuSans-40"/>
      <use transform="translate(139.130859 0.125)" xlink:href="#DejaVuSans-Oblique-110"/>
      <use transform="translate(202.509766 0.125)" xlink:href="#DejaVuSans-Oblique-84"/>
      <use transform="translate(263.59375 0.125)" xlink:href="#DejaVuSans-41"/>
     </g>
    </g>
   </g>
   <g id="line2d_13">
    <path clip-path="url(#pc5d5b87fad)" d="M 101.528926 194.541573 
L 111.554078 159.620226 
L 121.579231 153.957306 
L 131.604384 147.350562 
L 141.629536 150.182024 
L 151.654689 135.080902 
L 161.679842 98.271909 
L 171.704995 115.260674 
L 181.730147 107.710111 
L 191.7553 94.496632 
L 201.780453 131.30562 
L 211.805605 138.856179 
L 221.830758 82.226967 
L 231.855911 95.440456 
L 241.881064 158.676405 
L 251.906216 159.620226 
L 261.931369 123.755061 
L 271.956522 132.24944 
L 281.981674 123.755061 
L 292.006827 69.957303 
L 302.03198 92.608993 
L 312.057133 121.867418 
L 322.082285 246.451683 
L 332.107438 177.55281 
" style="fill:none;stroke:#d3d3d3;stroke-linecap:square;stroke-width:1.5;"/>
   </g>
   <g id="line2d_14">
    <path clip-path="url(#pc5d5b87fad)" d="M 101.528926 184.15955 
L 111.554078 174.721349 
L 121.579231 183.21573 
L 131.604384 189.822472 
L 141.629536 188.878651 
L 151.654689 184.159551 
L 161.679842 119.035956 
L 171.704995 100.159556 
L 181.730147 66.182026 
L 191.7553 96.384279 
L 201.780453 139.800003 
L 211.805605 149.238205 
L 221.830758 140.743822 
L 231.855911 160.564046 
L 241.881064 119.97978 
L 251.906216 126.586515 
L 261.931369 160.564046 
L 271.956522 169.058428 
L 281.981674 143.57528 
L 292.006827 113.373036 
L 302.03198 149.238205 
L 312.057133 143.57528 
L 322.082285 104.878657 
L 332.107438 121.867418 
" style="fill:none;stroke:#d3d3d3;stroke-linecap:square;stroke-width:1.5;"/>
   </g>
   <g id="line2d_15">
    <path clip-path="url(#pc5d5b87fad)" d="M 101.528926 160.564046 
L 111.554078 155.844945 
L 121.579231 175.665169 
L 131.604384 141.687642 
L 141.629536 161.507865 
L 151.654689 126.586519 
L 161.679842 116.204489 
L 171.704995 111.485388 
L 181.730147 107.710111 
L 191.7553 103.934834 
L 201.780453 106.766296 
L 211.805605 144.519104 
L 221.830758 130.361801 
L 231.855911 137.912364 
L 241.881064 129.417977 
L 251.906216 137.91236 
L 261.931369 141.687642 
L 271.956522 153.013482 
L 281.981674 148.294381 
L 292.006827 156.788764 
L 302.03198 147.350562 
L 312.057133 129.417977 
L 322.082285 136.968541 
L 332.107438 163.395506 
" style="fill:none;stroke:#d3d3d3;stroke-linecap:square;stroke-width:1.5;"/>
   </g>
   <g id="line2d_16">
    <path clip-path="url(#pc5d5b87fad)" d="M 101.528926 138.856179 
L 111.554078 138.856179 
L 121.579231 140.743818 
L 131.604384 185.103371 
L 141.629536 197.373033 
L 151.654689 127.530339 
L 161.679842 122.811238 
L 171.704995 108.653935 
L 181.730147 109.597758 
L 191.7553 119.97978 
L 201.780453 128.474158 
L 211.805605 144.519104 
L 221.830758 142.631461 
L 231.855911 148.294381 
L 241.881064 150.182024 
L 251.906216 159.620226 
L 261.931369 180.384269 
L 271.956522 162.451684 
L 281.981674 141.687642 
L 292.006827 215.305617 
L 302.03198 229.46292 
L 312.057133 159.620226 
L 322.082285 138.856179 
L 332.107438 162.451686 
" style="fill:none;stroke:#d3d3d3;stroke-linecap:square;stroke-width:1.5;"/>
   </g>
   <g id="line2d_17">
    <path clip-path="url(#pc5d5b87fad)" d="M 101.528926 186.047191 
L 111.554078 121.867414 
L 121.579231 135.080902 
L 131.604384 136.024721 
L 141.629536 138.856179 
L 151.654689 150.182024 
L 161.679842 97.328094 
L 171.704995 78.451681 
L 181.730147 86.002254 
L 191.7553 103.934834 
L 201.780453 148.294381 
L 211.805605 134.137078 
L 221.830758 105.822481 
L 231.855911 77.507866 
L 241.881064 78.45169 
L 251.906216 74.676404 
L 261.931369 116.204498 
L 271.956522 142.631465 
L 281.981674 102.047195 
L 292.006827 102.99101 
L 302.03198 124.698881 
L 312.057133 126.586515 
L 322.082285 105.822472 
L 332.107438 127.530339 
" style="fill:none;stroke:#d3d3d3;stroke-linecap:square;stroke-width:1.5;"/>
   </g>
   <g id="line2d_18">
    <path clip-path="url(#pc5d5b87fad)" d="M 101.528926 205.867415 
L 111.554078 241.732586 
L 121.579231 234.182023 
L 131.604384 177.55281 
L 141.629536 135.080902 
L 151.654689 111.485388 
L 161.679842 77.507875 
L 171.704995 83.170791 
L 181.730147 98.271909 
L 191.7553 101.103371 
L 201.780453 105.822472 
L 211.805605 114.316859 
L 221.830758 128.474162 
L 231.855911 128.474162 
L 241.881064 119.035956 
L 251.906216 138.856179 
L 261.931369 198.316853 
L 271.956522 218.137077 
L 281.981674 244.564044 
L 292.006827 250.226964 
L 302.03198 254.002246 
L 312.057133 260.608986 
L 322.082285 251.170784 
L 332.107438 234.182023 
" style="fill:none;stroke:#d3d3d3;stroke-linecap:square;stroke-width:1.5;"/>
   </g>
   <g id="line2d_19">
    <path clip-path="url(#pc5d5b87fad)" d="M 101.528926 155.844945 
L 111.554078 175.665169 
L 121.579231 141.687642 
L 131.604384 161.507865 
L 141.629536 126.586519 
L 151.654689 116.204489 
L 161.679842 111.485388 
L 171.704995 107.710111 
L 181.730147 103.934834 
L 191.7553 106.766296 
L 201.780453 144.519104 
L 211.805605 130.361801 
L 221.830758 137.912364 
L 231.855911 129.417977 
L 241.881064 137.91236 
L 251.906216 141.687642 
L 261.931369 153.013482 
L 271.956522 148.294381 
L 281.981674 156.788764 
L 292.006827 147.350562 
L 302.03198 129.417977 
L 312.057133 136.968541 
L 322.082285 163.395506 
L 332.107438 221.912358 
" style="fill:none;stroke:#d3d3d3;stroke-linecap:square;stroke-width:1.5;"/>
   </g>
   <g id="line2d_20">
    <path clip-path="url(#pc5d5b87fad)" d="M 101.528926 163.395506 
L 111.554078 136.024721 
L 121.579231 172.833708 
L 131.604384 152.069663 
L 141.629536 180.38427 
L 151.654689 106.766296 
L 161.679842 80.339329 
L 171.704995 89.777531 
L 181.730147 106.766296 
L 191.7553 113.373036 
L 201.780453 112.429212 
L 211.805605 121.867414 
L 221.830758 122.811238 
L 231.855911 136.968541 
L 241.881064 188.878651 
L 251.906216 157.732585 
L 261.931369 141.687642 
L 271.956522 148.294381 
L 281.981674 149.238205 
L 292.006827 202.092134 
L 302.03198 159.620226 
L 312.057133 170.946067 
L 322.082285 139.800003 
L 332.107438 145.462919 
" style="fill:none;stroke:#d3d3d3;stroke-linecap:square;stroke-width:1.5;"/>
   </g>
   <g id="line2d_21">
    <path clip-path="url(#pc5d5b87fad)" d="M 101.528926 197.373033 
L 111.554078 195.485393 
L 121.579231 169.058428 
L 131.604384 186.991011 
L 141.629536 191.710112 
L 151.654689 177.552809 
L 161.679842 135.080902 
L 171.704995 129.417977 
L 181.730147 85.05843 
L 191.7553 81.283153 
L 201.780453 97.328085 
L 211.805605 137.91236 
L 221.830758 136.968541 
L 231.855911 149.2382 
L 241.881064 214.361795 
L 251.906216 157.732585 
L 261.931369 297.417974 
L 271.956522 307.8 
L 281.981674 285.14831 
L 292.006827 303.080899 
L 302.03198 263.440448 
L 312.057133 286.092134 
L 322.082285 273.822469 
L 332.107438 266.271906 
" style="fill:none;stroke:#d3d3d3;stroke-linecap:square;stroke-width:1.5;"/>
   </g>
   <g id="line2d_22">
    <path clip-path="url(#pc5d5b87fad)" d="M 101.528926 225.68764 
L 111.554078 195.485393 
L 121.579231 201.148314 
L 131.604384 219.080898 
L 141.629536 191.710114 
L 151.654689 120.923599 
L 161.679842 83.170782 
L 171.704995 90.721355 
L 181.730147 110.541573 
L 191.7553 98.271909 
L 201.780453 87.889892 
L 211.805605 139.800003 
L 221.830758 101.103371 
L 231.855911 111.485397 
L 241.881064 90.721355 
L 251.906216 89.777531 
L 261.931369 70.901127 
L 271.956522 90.721355 
L 281.981674 137.912364 
L 292.006827 147.350562 
L 302.03198 148.294381 
L 312.057133 118.092137 
L 322.082285 118.092137 
L 332.107438 125.6427 
" style="fill:none;stroke:#d3d3d3;stroke-linecap:square;stroke-width:1.5;"/>
   </g>
   <g id="line2d_23">
    <path clip-path="url(#pc5d5b87fad)" d="M 101.528926 185.103371 
L 111.554078 167.170787 
L 121.579231 170.946068 
L 131.604384 169.530337 
L 141.629536 170.946067 
L 151.654689 127.058429 
L 161.679842 104.878648 
L 171.704995 103.934834 
L 181.730147 105.350565 
L 191.7553 102.519102 
L 201.780453 120.451685 
L 211.805605 138.38427 
L 221.830758 129.417982 
L 231.855911 133.193259 
L 241.881064 133.665169 
L 251.906216 140.27191 
L 261.931369 147.350562 
L 271.956522 150.653932 
L 281.981674 145.934831 
L 292.006827 152.069663 
L 302.03198 148.766293 
L 312.057133 140.27191 
L 322.082285 139.328091 
L 332.107438 162.923596 
" style="fill:none;stroke:#ff0000;stroke-linecap:square;stroke-width:1.5;"/>
   </g>
   <g id="line2d_24">
    <path clip-path="url(#pc5d5b87fad)" d="M 101.528926 201.148314 
L 111.554078 184.15955 
L 121.579231 227.575279 
L 131.604384 178.496629 
L 141.629536 176.608989 
L 151.654689 208.698876 
L 161.679842 167.170787 
L 171.704995 178.496629 
L 181.730147 148.294381 
L 191.7553 121.867418 
L 201.780453 110.541573 
L 211.805605 97.328094 
L 221.830758 57.687648 
L 231.855911 121.867418 
L 241.881064 86.002254 
L 251.906216 118.092137 
L 261.931369 102.99101 
L 271.956522 55.8 
L 281.981674 138.856179 
L 292.006827 131.30562 
L 302.03198 76.564052 
L 312.057133 180.38427 
L 322.082285 119.979775 
L 332.107438 127.530339 
" style="fill:none;stroke:#1f77b4;stroke-linecap:square;stroke-width:1.5;"/>
   </g>
   <g id="line2d_25">
    <path clip-path="url(#pc5d5b87fad)" d="M 211.805605 320.4 
L 211.805605 43.2 
" style="fill:none;stroke:#000000;stroke-dasharray:5.55,2.4;stroke-dashoffset:0;stroke-width:1.5;"/>
   </g>
   <g id="patch_3">
    <path d="M 90 320.4 
L 90 43.2 
" style="fill:none;stroke:#000000;stroke-linecap:square;stroke-linejoin:miter;stroke-width:0.8;"/>
   </g>
   <g id="patch_4">
    <path d="M 343.636364 320.4 
L 343.636364 43.2 
" style="fill:none;stroke:#000000;stroke-linecap:square;stroke-linejoin:miter;stroke-width:0.8;"/>
   </g>
   <g id="patch_5">
    <path d="M 90 320.4 
L 343.636364 320.4 
" style="fill:none;stroke:#000000;stroke-linecap:square;stroke-linejoin:miter;stroke-width:0.8;"/>
   </g>
   <g id="patch_6">
    <path d="M 90 43.2 
L 343.636364 43.2 
" style="fill:none;stroke:#000000;stroke-linecap:square;stroke-linejoin:miter;stroke-width:0.8;"/>
   </g>
   <g id="legend_1">
    <g id="patch_7">
     <path d="M 97 315.4 
L 268.742188 315.4 
Q 270.742188 315.4 270.742188 313.4 
L 270.742188 285.04375 
Q 270.742188 283.04375 268.742188 283.04375 
L 97 283.04375 
Q 95 283.04375 95 285.04375 
L 95 313.4 
Q 95 315.4 97 315.4 
z
" style="fill:#ffffff;opacity:0.8;stroke:#cccccc;stroke-linejoin:miter;"/>
    </g>
    <g id="line2d_26">
     <path d="M 99 291.142187 
L 119 291.142187 
" style="fill:none;stroke:#ff0000;stroke-linecap:square;stroke-width:1.5;"/>
    </g>
    <g id="line2d_27"/>
    <g id="text_15">
     <!-- Weighted Median Prediction -->
     <defs>
      <path d="M 3.328125 72.90625 
L 13.28125 72.90625 
L 28.609375 11.28125 
L 43.890625 72.90625 
L 54.984375 72.90625 
L 70.3125 11.28125 
L 85.59375 72.90625 
L 95.609375 72.90625 
L 77.296875 0 
L 64.890625 0 
L 49.515625 63.28125 
L 33.984375 0 
L 21.578125 0 
z
" id="DejaVuSans-87"/>
      <path d="M 45.40625 27.984375 
Q 45.40625 37.75 41.375 43.109375 
Q 37.359375 48.484375 30.078125 48.484375 
Q 22.859375 48.484375 18.828125 43.109375 
Q 14.796875 37.75 14.796875 27.984375 
Q 14.796875 18.265625 18.828125 12.890625 
Q 22.859375 7.515625 30.078125 7.515625 
Q 37.359375 7.515625 41.375 12.890625 
Q 45.40625 18.265625 45.40625 27.984375 
z
M 54.390625 6.78125 
Q 54.390625 -7.171875 48.1875 -13.984375 
Q 42 -20.796875 29.203125 -20.796875 
Q 24.46875 -20.796875 20.265625 -20.09375 
Q 16.0625 -19.390625 12.109375 -17.921875 
L 12.109375 -9.1875 
Q 16.0625 -11.328125 19.921875 -12.34375 
Q 23.78125 -13.375 27.78125 -13.375 
Q 36.625 -13.375 41.015625 -8.765625 
Q 45.40625 -4.15625 45.40625 5.171875 
L 45.40625 9.625 
Q 42.625 4.78125 38.28125 2.390625 
Q 33.9375 0 27.875 0 
Q 17.828125 0 11.671875 7.65625 
Q 5.515625 15.328125 5.515625 27.984375 
Q 5.515625 40.671875 11.671875 48.328125 
Q 17.828125 56 27.875 56 
Q 33.9375 56 38.28125 53.609375 
Q 42.625 51.21875 45.40625 46.390625 
L 45.40625 54.6875 
L 54.390625 54.6875 
z
" id="DejaVuSans-103"/>
      <path d="M 18.3125 70.21875 
L 18.3125 54.6875 
L 36.8125 54.6875 
L 36.8125 47.703125 
L 18.3125 47.703125 
L 18.3125 18.015625 
Q 18.3125 11.328125 20.140625 9.421875 
Q 21.96875 7.515625 27.59375 7.515625 
L 36.8125 7.515625 
L 36.8125 0 
L 27.59375 0 
Q 17.1875 0 13.234375 3.875 
Q 9.28125 7.765625 9.28125 18.015625 
L 9.28125 47.703125 
L 2.6875 47.703125 
L 2.6875 54.6875 
L 9.28125 54.6875 
L 9.28125 70.21875 
z
" id="DejaVuSans-116"/>
      <path d="M 45.40625 46.390625 
L 45.40625 75.984375 
L 54.390625 75.984375 
L 54.390625 0 
L 45.40625 0 
L 45.40625 8.203125 
Q 42.578125 3.328125 38.25 0.953125 
Q 33.9375 -1.421875 27.875 -1.421875 
Q 17.96875 -1.421875 11.734375 6.484375 
Q 5.515625 14.40625 5.515625 27.296875 
Q 5.515625 40.1875 11.734375 48.09375 
Q 17.96875 56 27.875 56 
Q 33.9375 56 38.25 53.625 
Q 42.578125 51.265625 45.40625 46.390625 
z
M 14.796875 27.296875 
Q 14.796875 17.390625 18.875 11.75 
Q 22.953125 6.109375 30.078125 6.109375 
Q 37.203125 6.109375 41.296875 11.75 
Q 45.40625 17.390625 45.40625 27.296875 
Q 45.40625 37.203125 41.296875 42.84375 
Q 37.203125 48.484375 30.078125 48.484375 
Q 22.953125 48.484375 18.875 42.84375 
Q 14.796875 37.203125 14.796875 27.296875 
z
" id="DejaVuSans-100"/>
      <path d="M 9.8125 72.90625 
L 24.515625 72.90625 
L 43.109375 23.296875 
L 61.8125 72.90625 
L 76.515625 72.90625 
L 76.515625 0 
L 66.890625 0 
L 66.890625 64.015625 
L 48.09375 14.015625 
L 38.1875 14.015625 
L 19.390625 64.015625 
L 19.390625 0 
L 9.8125 0 
z
" id="DejaVuSans-77"/>
      <path d="M 34.28125 27.484375 
Q 23.390625 27.484375 19.1875 25 
Q 14.984375 22.515625 14.984375 16.5 
Q 14.984375 11.71875 18.140625 8.90625 
Q 21.296875 6.109375 26.703125 6.109375 
Q 34.1875 6.109375 38.703125 11.40625 
Q 43.21875 16.703125 43.21875 25.484375 
L 43.21875 27.484375 
z
M 52.203125 31.203125 
L 52.203125 0 
L 43.21875 0 
L 43.21875 8.296875 
Q 40.140625 3.328125 35.546875 0.953125 
Q 30.953125 -1.421875 24.3125 -1.421875 
Q 15.921875 -1.421875 10.953125 3.296875 
Q 6 8.015625 6 15.921875 
Q 6 25.140625 12.171875 29.828125 
Q 18.359375 34.515625 30.609375 34.515625 
L 43.21875 34.515625 
L 43.21875 35.40625 
Q 43.21875 41.609375 39.140625 45 
Q 35.0625 48.390625 27.6875 48.390625 
Q 23 48.390625 18.546875 47.265625 
Q 14.109375 46.140625 10.015625 43.890625 
L 10.015625 52.203125 
Q 14.9375 54.109375 19.578125 55.046875 
Q 24.21875 56 28.609375 56 
Q 40.484375 56 46.34375 49.84375 
Q 52.203125 43.703125 52.203125 31.203125 
z
" id="DejaVuSans-97"/>
      <path d="M 54.890625 33.015625 
L 54.890625 0 
L 45.90625 0 
L 45.90625 32.71875 
Q 45.90625 40.484375 42.875 44.328125 
Q 39.84375 48.1875 33.796875 48.1875 
Q 26.515625 48.1875 22.3125 43.546875 
Q 18.109375 38.921875 18.109375 30.90625 
L 18.109375 0 
L 9.078125 0 
L 9.078125 54.6875 
L 18.109375 54.6875 
L 18.109375 46.1875 
Q 21.34375 51.125 25.703125 53.5625 
Q 30.078125 56 35.796875 56 
Q 45.21875 56 50.046875 50.171875 
Q 54.890625 44.34375 54.890625 33.015625 
z
" id="DejaVuSans-110"/>
      <path d="M 19.671875 64.796875 
L 19.671875 37.40625 
L 32.078125 37.40625 
Q 38.96875 37.40625 42.71875 40.96875 
Q 46.484375 44.53125 46.484375 51.125 
Q 46.484375 57.671875 42.71875 61.234375 
Q 38.96875 64.796875 32.078125 64.796875 
z
M 9.8125 72.90625 
L 32.078125 72.90625 
Q 44.34375 72.90625 50.609375 67.359375 
Q 56.890625 61.8125 56.890625 51.125 
Q 56.890625 40.328125 50.609375 34.8125 
Q 44.34375 29.296875 32.078125 29.296875 
L 19.671875 29.296875 
L 19.671875 0 
L 9.8125 0 
z
" id="DejaVuSans-80"/>
      <path d="M 48.78125 52.59375 
L 48.78125 44.1875 
Q 44.96875 46.296875 41.140625 47.34375 
Q 37.3125 48.390625 33.40625 48.390625 
Q 24.65625 48.390625 19.8125 42.84375 
Q 14.984375 37.3125 14.984375 27.296875 
Q 14.984375 17.28125 19.8125 11.734375 
Q 24.65625 6.203125 33.40625 6.203125 
Q 37.3125 6.203125 41.140625 7.25 
Q 44.96875 8.296875 48.78125 10.40625 
L 48.78125 2.09375 
Q 45.015625 0.34375 40.984375 -0.53125 
Q 36.96875 -1.421875 32.421875 -1.421875 
Q 20.0625 -1.421875 12.78125 6.34375 
Q 5.515625 14.109375 5.515625 27.296875 
Q 5.515625 40.671875 12.859375 48.328125 
Q 20.21875 56 33.015625 56 
Q 37.15625 56 41.109375 55.140625 
Q 45.0625 54.296875 48.78125 52.59375 
z
" id="DejaVuSans-99"/>
     </defs>
     <g transform="translate(127 294.642187)scale(0.1 -0.1)">
      <use xlink:href="#DejaVuSans-87"/>
      <use x="93.001953" xlink:href="#DejaVuSans-101"/>
      <use x="154.525391" xlink:href="#DejaVuSans-105"/>
      <use x="182.308594" xlink:href="#DejaVuSans-103"/>
      <use x="245.785156" xlink:href="#DejaVuSans-104"/>
      <use x="309.164062" xlink:href="#DejaVuSans-116"/>
      <use x="348.373047" xlink:href="#DejaVuSans-101"/>
      <use x="409.896484" xlink:href="#DejaVuSans-100"/>
      <use x="473.373047" xlink:href="#DejaVuSans-32"/>
      <use x="505.160156" xlink:href="#DejaVuSans-77"/>
      <use x="591.439453" xlink:href="#DejaVuSans-101"/>
      <use x="652.962891" xlink:href="#DejaVuSans-100"/>
      <use x="716.439453" xlink:href="#DejaVuSans-105"/>
      <use x="744.222656" xlink:href="#DejaVuSans-97"/>
      <use x="805.501953" xlink:href="#DejaVuSans-110"/>
      <use x="868.880859" xlink:href="#DejaVuSans-32"/>
      <use x="900.667969" xlink:href="#DejaVuSans-80"/>
      <use x="959.220703" xlink:href="#DejaVuSans-114"/>
      <use x="998.083984" xlink:href="#DejaVuSans-101"/>
      <use x="1059.607422" xlink:href="#DejaVuSans-100"/>
      <use x="1123.083984" xlink:href="#DejaVuSans-105"/>
      <use x="1150.867188" xlink:href="#DejaVuSans-99"/>
      <use x="1205.847656" xlink:href="#DejaVuSans-116"/>
      <use x="1245.056641" xlink:href="#DejaVuSans-105"/>
      <use x="1272.839844" xlink:href="#DejaVuSans-111"/>
      <use x="1334.021484" xlink:href="#DejaVuSans-110"/>
     </g>
    </g>
    <g id="line2d_28">
     <path d="M 99 305.820312 
L 119 305.820312 
" style="fill:none;stroke:#1f77b4;stroke-linecap:square;stroke-width:1.5;"/>
    </g>
    <g id="line2d_29"/>
    <g id="text_16">
     <!-- Observation -->
     <defs>
      <path d="M 39.40625 66.21875 
Q 28.65625 66.21875 22.328125 58.203125 
Q 16.015625 50.203125 16.015625 36.375 
Q 16.015625 22.609375 22.328125 14.59375 
Q 28.65625 6.59375 39.40625 6.59375 
Q 50.140625 6.59375 56.421875 14.59375 
Q 62.703125 22.609375 62.703125 36.375 
Q 62.703125 50.203125 56.421875 58.203125 
Q 50.140625 66.21875 39.40625 66.21875 
z
M 39.40625 74.21875 
Q 54.734375 74.21875 63.90625 63.9375 
Q 73.09375 53.65625 73.09375 36.375 
Q 73.09375 19.140625 63.90625 8.859375 
Q 54.734375 -1.421875 39.40625 -1.421875 
Q 24.03125 -1.421875 14.8125 8.828125 
Q 5.609375 19.09375 5.609375 36.375 
Q 5.609375 53.65625 14.8125 63.9375 
Q 24.03125 74.21875 39.40625 74.21875 
z
" id="DejaVuSans-79"/>
      <path d="M 48.6875 27.296875 
Q 48.6875 37.203125 44.609375 42.84375 
Q 40.53125 48.484375 33.40625 48.484375 
Q 26.265625 48.484375 22.1875 42.84375 
Q 18.109375 37.203125 18.109375 27.296875 
Q 18.109375 17.390625 22.1875 11.75 
Q 26.265625 6.109375 33.40625 6.109375 
Q 40.53125 6.109375 44.609375 11.75 
Q 48.6875 17.390625 48.6875 27.296875 
z
M 18.109375 46.390625 
Q 20.953125 51.265625 25.265625 53.625 
Q 29.59375 56 35.59375 56 
Q 45.5625 56 51.78125 48.09375 
Q 58.015625 40.1875 58.015625 27.296875 
Q 58.015625 14.40625 51.78125 6.484375 
Q 45.5625 -1.421875 35.59375 -1.421875 
Q 29.59375 -1.421875 25.265625 0.953125 
Q 20.953125 3.328125 18.109375 8.203125 
L 18.109375 0 
L 9.078125 0 
L 9.078125 75.984375 
L 18.109375 75.984375 
z
" id="DejaVuSans-98"/>
      <path d="M 2.984375 54.6875 
L 12.5 54.6875 
L 29.59375 8.796875 
L 46.6875 54.6875 
L 56.203125 54.6875 
L 35.6875 0 
L 23.484375 0 
z
" id="DejaVuSans-118"/>
     </defs>
     <g transform="translate(127 309.320312)scale(0.1 -0.1)">
      <use xlink:href="#DejaVuSans-79"/>
      <use x="78.710938" xlink:href="#DejaVuSans-98"/>
      <use x="142.1875" xlink:href="#DejaVuSans-115"/>
      <use x="194.287109" xlink:href="#DejaVuSans-101"/>
      <use x="255.810547" xlink:href="#DejaVuSans-114"/>
      <use x="296.923828" xlink:href="#DejaVuSans-118"/>
      <use x="356.103516" xlink:href="#DejaVuSans-97"/>
      <use x="417.382812" xlink:href="#DejaVuSans-116"/>
      <use x="456.591797" xlink:href="#DejaVuSans-105"/>
      <use x="484.375" xlink:href="#DejaVuSans-111"/>
      <use x="545.556641" xlink:href="#DejaVuSans-110"/>
     </g>
    </g>
   </g>
  </g>
  <g id="axes_2">
   <g id="patch_8">
    <path d="M 394.363636 320.4 
L 648 320.4 
L 648 43.2 
L 394.363636 43.2 
z
" style="fill:#ffffff;"/>
   </g>
   <g id="matplotlib.axis_3">
    <g id="xtick_6">
     <g id="line2d_30">
      <g>
       <use style="stroke:#000000;stroke-width:0.8;" x="415.917715" xlink:href="#m531ccf195e" y="320.4"/>
      </g>
     </g>
     <g id="text_17">
      <!-- −20 -->
      <g transform="translate(405.365371 334.998438)scale(0.1 -0.1)">
       <use xlink:href="#DejaVuSans-8722"/>
       <use x="83.789062" xlink:href="#DejaVuSans-50"/>
       <use x="147.412109" xlink:href="#DejaVuSans-48"/>
      </g>
     </g>
    </g>
    <g id="xtick_7">
     <g id="line2d_31">
      <g>
       <use style="stroke:#000000;stroke-width:0.8;" x="466.043478" xlink:href="#m531ccf195e" y="320.4"/>
      </g>
     </g>
     <g id="text_18">
      <!-- −10 -->
      <g transform="translate(455.491135 334.998438)scale(0.1 -0.1)">
       <use xlink:href="#DejaVuSans-8722"/>
       <use x="83.789062" xlink:href="#DejaVuSans-49"/>
       <use x="147.412109" xlink:href="#DejaVuSans-48"/>
      </g>
     </g>
    </g>
    <g id="xtick_8">
     <g id="line2d_32">
      <g>
       <use style="stroke:#000000;stroke-width:0.8;" x="516.169242" xlink:href="#m531ccf195e" y="320.4"/>
      </g>
     </g>
     <g id="text_19">
      <!-- 0 -->
      <g transform="translate(512.987992 334.998438)scale(0.1 -0.1)">
       <use xlink:href="#DejaVuSans-48"/>
      </g>
     </g>
    </g>
    <g id="xtick_9">
     <g id="line2d_33">
      <g>
       <use style="stroke:#000000;stroke-width:0.8;" x="566.295005" xlink:href="#m531ccf195e" y="320.4"/>
      </g>
     </g>
     <g id="text_20">
      <!-- 10 -->
      <g transform="translate(559.932505 334.998438)scale(0.1 -0.1)">
       <use xlink:href="#DejaVuSans-49"/>
       <use x="63.623047" xlink:href="#DejaVuSans-48"/>
      </g>
     </g>
    </g>
    <g id="xtick_10">
     <g id="line2d_34">
      <g>
       <use style="stroke:#000000;stroke-width:0.8;" x="616.420769" xlink:href="#m531ccf195e" y="320.4"/>
      </g>
     </g>
     <g id="text_21">
      <!-- 20 -->
      <g transform="translate(610.058269 334.998438)scale(0.1 -0.1)">
       <use xlink:href="#DejaVuSans-50"/>
       <use x="63.623047" xlink:href="#DejaVuSans-48"/>
      </g>
     </g>
    </g>
    <g id="text_22">
     <!-- Time from $t_0$ (hours) -->
     <g transform="translate(469.981818 348.676562)scale(0.1 -0.1)">
      <use transform="translate(0 0.015625)" xlink:href="#DejaVuSans-84"/>
      <use transform="translate(61.083984 0.015625)" xlink:href="#DejaVuSans-105"/>
      <use transform="translate(88.867188 0.015625)" xlink:href="#DejaVuSans-109"/>
      <use transform="translate(186.279297 0.015625)" xlink:href="#DejaVuSans-101"/>
      <use transform="translate(247.802734 0.015625)" xlink:href="#DejaVuSans-32"/>
      <use transform="translate(279.589844 0.015625)" xlink:href="#DejaVuSans-102"/>
      <use transform="translate(314.794922 0.015625)" xlink:href="#DejaVuSans-114"/>
      <use transform="translate(355.908203 0.015625)" xlink:href="#DejaVuSans-111"/>
      <use transform="translate(417.089844 0.015625)" xlink:href="#DejaVuSans-109"/>
      <use transform="translate(514.501953 0.015625)" xlink:href="#DejaVuSans-32"/>
      <use transform="translate(546.289062 0.015625)" xlink:href="#DejaVuSans-Oblique-116"/>
      <use transform="translate(585.498047 -16.390625)scale(0.7)" xlink:href="#DejaVuSans-48"/>
      <use transform="translate(632.768555 0.015625)" xlink:href="#DejaVuSans-32"/>
      <use transform="translate(664.555664 0.015625)" xlink:href="#DejaVuSans-40"/>
      <use transform="translate(703.569336 0.015625)" xlink:href="#DejaVuSans-104"/>
      <use transform="translate(766.948242 0.015625)" xlink:href="#DejaVuSans-111"/>
      <use transform="translate(828.129883 0.015625)" xlink:href="#DejaVuSans-117"/>
      <use transform="translate(891.508789 0.015625)" xlink:href="#DejaVuSans-114"/>
      <use transform="translate(932.62207 0.015625)" xlink:href="#DejaVuSans-115"/>
      <use transform="translate(984.72168 0.015625)" xlink:href="#DejaVuSans-41"/>
     </g>
    </g>
   </g>
   <g id="matplotlib.axis_4">
    <g id="ytick_8">
     <g id="line2d_35">
      <g>
       <use style="stroke:#000000;stroke-width:0.8;" x="394.363636" xlink:href="#m2617e0c58b" y="303.423734"/>
      </g>
     </g>
     <g id="text_23">
      <!-- 300 -->
      <defs>
       <path d="M 40.578125 39.3125 
Q 47.65625 37.796875 51.625 33 
Q 55.609375 28.21875 55.609375 21.1875 
Q 55.609375 10.40625 48.1875 4.484375 
Q 40.765625 -1.421875 27.09375 -1.421875 
Q 22.515625 -1.421875 17.65625 -0.515625 
Q 12.796875 0.390625 7.625 2.203125 
L 7.625 11.71875 
Q 11.71875 9.328125 16.59375 8.109375 
Q 21.484375 6.890625 26.8125 6.890625 
Q 36.078125 6.890625 40.9375 10.546875 
Q 45.796875 14.203125 45.796875 21.1875 
Q 45.796875 27.640625 41.28125 31.265625 
Q 36.765625 34.90625 28.71875 34.90625 
L 20.21875 34.90625 
L 20.21875 43.015625 
L 29.109375 43.015625 
Q 36.375 43.015625 40.234375 45.921875 
Q 44.09375 48.828125 44.09375 54.296875 
Q 44.09375 59.90625 40.109375 62.90625 
Q 36.140625 65.921875 28.71875 65.921875 
Q 24.65625 65.921875 20.015625 65.03125 
Q 15.375 64.15625 9.8125 62.3125 
L 9.8125 71.09375 
Q 15.4375 72.65625 20.34375 73.4375 
Q 25.25 74.21875 29.59375 74.21875 
Q 40.828125 74.21875 47.359375 69.109375 
Q 53.90625 64.015625 53.90625 55.328125 
Q 53.90625 49.265625 50.4375 45.09375 
Q 46.96875 40.921875 40.578125 39.3125 
z
" id="DejaVuSans-51"/>
      </defs>
      <g transform="translate(368.276136 307.222952)scale(0.1 -0.1)">
       <use xlink:href="#DejaVuSans-51"/>
       <use x="63.623047" xlink:href="#DejaVuSans-48"/>
       <use x="127.246094" xlink:href="#DejaVuSans-48"/>
      </g>
     </g>
    </g>
    <g id="ytick_9">
     <g id="line2d_36">
      <g>
       <use style="stroke:#000000;stroke-width:0.8;" x="394.363636" xlink:href="#m2617e0c58b" y="266.954848"/>
      </g>
     </g>
     <g id="text_24">
      <!-- 350 -->
      <defs>
       <path d="M 10.796875 72.90625 
L 49.515625 72.90625 
L 49.515625 64.59375 
L 19.828125 64.59375 
L 19.828125 46.734375 
Q 21.96875 47.46875 24.109375 47.828125 
Q 26.265625 48.1875 28.421875 48.1875 
Q 40.625 48.1875 47.75 41.5 
Q 54.890625 34.8125 54.890625 23.390625 
Q 54.890625 11.625 47.5625 5.09375 
Q 40.234375 -1.421875 26.90625 -1.421875 
Q 22.3125 -1.421875 17.546875 -0.640625 
Q 12.796875 0.140625 7.71875 1.703125 
L 7.71875 11.625 
Q 12.109375 9.234375 16.796875 8.0625 
Q 21.484375 6.890625 26.703125 6.890625 
Q 35.15625 6.890625 40.078125 11.328125 
Q 45.015625 15.765625 45.015625 23.390625 
Q 45.015625 31 40.078125 35.4375 
Q 35.15625 39.890625 26.703125 39.890625 
Q 22.75 39.890625 18.8125 39.015625 
Q 14.890625 38.140625 10.796875 36.28125 
z
" id="DejaVuSans-53"/>
      </defs>
      <g transform="translate(368.276136 270.754067)scale(0.1 -0.1)">
       <use xlink:href="#DejaVuSans-51"/>
       <use x="63.623047" xlink:href="#DejaVuSans-53"/>
       <use x="127.246094" xlink:href="#DejaVuSans-48"/>
      </g>
     </g>
    </g>
    <g id="ytick_10">
     <g id="line2d_37">
      <g>
       <use style="stroke:#000000;stroke-width:0.8;" x="394.363636" xlink:href="#m2617e0c58b" y="230.485962"/>
      </g>
     </g>
     <g id="text_25">
      <!-- 400 -->
      <g transform="translate(368.276136 234.285181)scale(0.1 -0.1)">
       <use xlink:href="#DejaVuSans-52"/>
       <use x="63.623047" xlink:href="#DejaVuSans-48"/>
       <use x="127.246094" xlink:href="#DejaVuSans-48"/>
      </g>
     </g>
    </g>
    <g id="ytick_11">
     <g id="line2d_38">
      <g>
       <use style="stroke:#000000;stroke-width:0.8;" x="394.363636" xlink:href="#m2617e0c58b" y="194.017077"/>
      </g>
     </g>
     <g id="text_26">
      <!-- 450 -->
      <g transform="translate(368.276136 197.816295)scale(0.1 -0.1)">
       <use xlink:href="#DejaVuSans-52"/>
       <use x="63.623047" xlink:href="#DejaVuSans-53"/>
       <use x="127.246094" xlink:href="#DejaVuSans-48"/>
      </g>
     </g>
    </g>
    <g id="ytick_12">
     <g id="line2d_39">
      <g>
       <use style="stroke:#000000;stroke-width:0.8;" x="394.363636" xlink:href="#m2617e0c58b" y="157.548191"/>
      </g>
     </g>
     <g id="text_27">
      <!-- 500 -->
      <g transform="translate(368.276136 161.34741)scale(0.1 -0.1)">
       <use xlink:href="#DejaVuSans-53"/>
       <use x="63.623047" xlink:href="#DejaVuSans-48"/>
       <use x="127.246094" xlink:href="#DejaVuSans-48"/>
      </g>
     </g>
    </g>
    <g id="ytick_13">
     <g id="line2d_40">
      <g>
       <use style="stroke:#000000;stroke-width:0.8;" x="394.363636" xlink:href="#m2617e0c58b" y="121.079305"/>
      </g>
     </g>
     <g id="text_28">
      <!-- 550 -->
      <g transform="translate(368.276136 124.878524)scale(0.1 -0.1)">
       <use xlink:href="#DejaVuSans-53"/>
       <use x="63.623047" xlink:href="#DejaVuSans-53"/>
       <use x="127.246094" xlink:href="#DejaVuSans-48"/>
      </g>
     </g>
    </g>
    <g id="ytick_14">
     <g id="line2d_41">
      <g>
       <use style="stroke:#000000;stroke-width:0.8;" x="394.363636" xlink:href="#m2617e0c58b" y="84.61042"/>
      </g>
     </g>
     <g id="text_29">
      <!-- 600 -->
      <g transform="translate(368.276136 88.409638)scale(0.1 -0.1)">
       <use xlink:href="#DejaVuSans-54"/>
       <use x="63.623047" xlink:href="#DejaVuSans-48"/>
       <use x="127.246094" xlink:href="#DejaVuSans-48"/>
      </g>
     </g>
    </g>
    <g id="ytick_15">
     <g id="line2d_42">
      <g>
       <use style="stroke:#000000;stroke-width:0.8;" x="394.363636" xlink:href="#m2617e0c58b" y="48.141534"/>
      </g>
     </g>
     <g id="text_30">
      <!-- 650 -->
      <g transform="translate(368.276136 51.940753)scale(0.1 -0.1)">
       <use xlink:href="#DejaVuSans-54"/>
       <use x="63.623047" xlink:href="#DejaVuSans-53"/>
       <use x="127.246094" xlink:href="#DejaVuSans-48"/>
      </g>
     </g>
    </g>
    <g id="text_31">
     <!-- $V (km / s)$ -->
     <defs>
      <path d="M 20.609375 0 
L 7.8125 72.90625 
L 17.484375 72.90625 
L 28.078125 10.203125 
L 63.484375 72.90625 
L 74.21875 72.90625 
L 32.078125 0 
z
" id="DejaVuSans-Oblique-86"/>
      <path d="M 18.3125 75.984375 
L 27.296875 75.984375 
L 18.703125 31.6875 
L 49.515625 54.6875 
L 61.1875 54.6875 
L 26.8125 28.515625 
L 51.90625 0 
L 41.015625 0 
L 17.671875 26.703125 
L 12.5 0 
L 3.515625 0 
z
" id="DejaVuSans-Oblique-107"/>
      <path d="M 89.796875 33.015625 
L 83.40625 0 
L 74.421875 0 
L 80.71875 32.71875 
Q 81.109375 34.8125 81.296875 36.328125 
Q 81.5 37.84375 81.5 38.921875 
Q 81.5 43.3125 79.046875 45.75 
Q 76.609375 48.1875 72.21875 48.1875 
Q 65.671875 48.1875 60.546875 43.28125 
Q 55.421875 38.375 53.90625 30.515625 
L 47.90625 0 
L 38.921875 0 
L 45.3125 32.71875 
Q 45.703125 34.515625 45.890625 36.046875 
Q 46.09375 37.59375 46.09375 38.8125 
Q 46.09375 43.265625 43.65625 45.71875 
Q 41.21875 48.1875 36.921875 48.1875 
Q 30.28125 48.1875 25.140625 43.28125 
Q 20.015625 38.375 18.5 30.515625 
L 12.5 0 
L 3.515625 0 
L 14.203125 54.6875 
L 23.1875 54.6875 
L 21.484375 46.1875 
Q 25.140625 50.984375 30.046875 53.484375 
Q 34.96875 56 40.578125 56 
Q 46.53125 56 50.359375 52.875 
Q 54.203125 49.75 54.984375 44.1875 
Q 59.078125 49.953125 64.46875 52.96875 
Q 69.875 56 75.875 56 
Q 82.90625 56 86.734375 51.953125 
Q 90.578125 47.90625 90.578125 40.484375 
Q 90.578125 38.875 90.375 36.9375 
Q 90.1875 35.015625 89.796875 33.015625 
z
" id="DejaVuSans-Oblique-109"/>
      <path d="M 25.390625 72.90625 
L 33.6875 72.90625 
L 8.296875 -9.28125 
L 0 -9.28125 
z
" id="DejaVuSans-47"/>
      <path d="M 50 53.078125 
L 48.296875 44.578125 
Q 44.734375 46.53125 40.765625 47.5 
Q 36.8125 48.484375 32.625 48.484375 
Q 25.53125 48.484375 21.453125 46.0625 
Q 17.390625 43.65625 17.390625 39.5 
Q 17.390625 34.671875 26.859375 32.078125 
Q 27.59375 31.890625 27.9375 31.78125 
L 30.8125 30.90625 
Q 39.796875 28.421875 42.796875 25.6875 
Q 45.796875 22.953125 45.796875 18.21875 
Q 45.796875 9.515625 38.890625 4.046875 
Q 31.984375 -1.421875 20.796875 -1.421875 
Q 16.453125 -1.421875 11.671875 -0.578125 
Q 6.890625 0.25 1.125 2 
L 2.875 11.28125 
Q 7.8125 8.734375 12.59375 7.421875 
Q 17.390625 6.109375 21.78125 6.109375 
Q 28.375 6.109375 32.5 8.9375 
Q 36.625 11.765625 36.625 16.109375 
Q 36.625 20.796875 25.78125 23.6875 
L 24.859375 23.921875 
L 21.78125 24.703125 
Q 14.9375 26.515625 11.765625 29.46875 
Q 8.59375 32.421875 8.59375 37.015625 
Q 8.59375 45.75 15.15625 50.875 
Q 21.734375 56 33.015625 56 
Q 37.453125 56 41.671875 55.265625 
Q 45.90625 54.546875 50 53.078125 
z
" id="DejaVuSans-Oblique-115"/>
     </defs>
     <g transform="translate(362.196449 201.2)rotate(-90)scale(0.1 -0.1)">
      <use transform="translate(0 0.015625)" xlink:href="#DejaVuSans-Oblique-86"/>
      <use transform="translate(68.408203 0.015625)" xlink:href="#DejaVuSans-40"/>
      <use transform="translate(107.421875 0.015625)" xlink:href="#DejaVuSans-Oblique-107"/>
      <use transform="translate(165.332031 0.015625)" xlink:href="#DejaVuSans-Oblique-109"/>
      <use transform="translate(262.744141 0.015625)" xlink:href="#DejaVuSans-47"/>
      <use transform="translate(296.435547 0.015625)" xlink:href="#DejaVuSans-Oblique-115"/>
      <use transform="translate(348.535156 0.015625)" xlink:href="#DejaVuSans-41"/>
     </g>
    </g>
   </g>
   <g id="line2d_43">
    <path clip-path="url(#pec9465d703)" d="M 405.892562 307.435311 
L 415.917715 300.141534 
L 425.942867 294.671201 
L 435.96802 297.953401 
L 445.993173 289.565557 
L 456.018326 263.307959 
L 466.043478 245.802894 
L 476.068631 234.132851 
L 486.093784 215.533719 
L 496.118936 211.157453 
L 506.144089 195.111143 
L 516.169242 164.841968 
L 526.194395 121.079305 
L 536.219547 72.575687 
L 546.2447 70.387554 
L 556.269853 56.164689 
L 566.295005 80.963531 
L 576.320158 70.752243 
L 586.345311 86.798553 
L 596.370464 86.433864 
L 606.395616 71.481621 
L 616.420769 55.8 
L 626.445922 63.093777 
L 636.471074 85.339797 
" style="fill:none;stroke:#d3d3d3;stroke-linecap:square;stroke-width:1.5;"/>
   </g>
   <g id="line2d_44">
    <path clip-path="url(#pec9465d703)" d="M 405.892562 307.8 
L 415.917715 300.141534 
L 425.942867 294.671201 
L 435.96802 297.953401 
L 445.993173 289.565557 
L 456.018326 263.307959 
L 466.043478 245.802894 
L 476.068631 234.132851 
L 486.093784 215.533719 
L 496.118936 211.157453 
L 506.144089 195.111143 
L 516.169242 164.841968 
L 526.194395 121.079305 
L 536.219547 72.575687 
L 546.2447 70.387554 
L 556.269853 56.164689 
L 566.295005 80.963531 
L 576.320158 70.752243 
L 586.345311 86.798553 
L 596.370464 86.433864 
L 606.395616 71.481621 
L 616.420769 55.8 
L 626.445922 63.093777 
L 636.471074 85.339797 
" style="fill:none;stroke:#d3d3d3;stroke-linecap:square;stroke-width:1.5;"/>
   </g>
   <g id="line2d_45">
    <path clip-path="url(#pec9465d703)" d="M 405.892562 243.250072 
L 415.917715 248.355716 
L 425.942867 249.449783 
L 435.96802 266.22547 
L 445.993173 269.50767 
L 456.018326 263.307959 
L 466.043478 239.603184 
L 476.068631 222.098119 
L 486.093784 216.992475 
L 496.118936 205.322431 
L 506.144089 187.817366 
L 516.169242 134.208104 
L 526.194395 144.784081 
L 536.219547 141.137192 
L 546.2447 142.960637 
L 556.269853 145.513459 
L 566.295005 130.561216 
L 576.320158 138.58437 
L 586.345311 145.878148 
L 596.370464 181.617656 
L 606.395616 202.040232 
L 616.420769 208.239942 
L 626.445922 227.203763 
L 636.471074 245.073517 
" style="fill:none;stroke:#d3d3d3;stroke-linecap:square;stroke-width:1.5;"/>
   </g>
   <g id="line2d_46">
    <path clip-path="url(#pec9465d703)" d="M 405.892562 266.590159 
L 415.917715 269.50767 
L 425.942867 271.695803 
L 435.96802 273.883936 
L 445.993173 272.425181 
L 456.018326 261.119826 
L 466.043478 250.179161 
L 476.068631 242.156006 
L 486.093784 223.556874 
L 496.118936 211.157453 
L 506.144089 185.629233 
L 516.169242 150.619103 
L 526.194395 124.361505 
L 536.219547 109.773951 
L 546.2447 92.633575 
L 556.269853 80.234153 
L 566.295005 84.975109 
L 576.320158 84.245731 
L 586.345311 107.585818 
L 596.370464 102.480174 
L 606.395616 108.679884 
L 616.420769 118.161795 
L 626.445922 121.079305 
L 636.471074 125.82026 
" style="fill:none;stroke:#d3d3d3;stroke-linecap:square;stroke-width:1.5;"/>
   </g>
   <g id="line2d_47">
    <path clip-path="url(#pec9465d703)" d="M 405.892562 240.69725 
L 415.917715 243.250072 
L 425.942867 248.355716 
L 435.96802 249.449783 
L 445.993173 266.22547 
L 456.018326 269.50767 
L 466.043478 263.307959 
L 476.068631 239.603184 
L 486.093784 222.098119 
L 496.118936 216.992475 
L 506.144089 205.322431 
L 516.169242 187.817366 
L 526.194395 134.208104 
L 536.219547 144.784081 
L 546.2447 141.137192 
L 556.269853 142.960637 
L 566.295005 145.513459 
L 576.320158 130.561216 
L 586.345311 138.58437 
L 596.370464 145.878148 
L 606.395616 181.617656 
L 616.420769 202.040232 
L 626.445922 208.239942 
L 636.471074 227.203763 
" style="fill:none;stroke:#d3d3d3;stroke-linecap:square;stroke-width:1.5;"/>
   </g>
   <g id="line2d_48">
    <path clip-path="url(#pec9465d703)" d="M 405.892562 266.22547 
L 415.917715 266.590159 
L 425.942867 269.50767 
L 435.96802 271.695803 
L 445.993173 273.883936 
L 456.018326 272.425181 
L 466.043478 261.119826 
L 476.068631 250.179161 
L 486.093784 242.156006 
L 496.118936 223.556874 
L 506.144089 211.157453 
L 516.169242 185.629233 
L 526.194395 150.619103 
L 536.219547 124.361505 
L 546.2447 109.773951 
L 556.269853 92.633575 
L 566.295005 80.234153 
L 576.320158 84.975109 
L 586.345311 84.245731 
L 596.370464 107.585818 
L 606.395616 102.480174 
L 616.420769 108.679884 
L 626.445922 118.161795 
L 636.471074 121.079305 
" style="fill:none;stroke:#d3d3d3;stroke-linecap:square;stroke-width:1.5;"/>
   </g>
   <g id="line2d_49">
    <path clip-path="url(#pec9465d703)" d="M 0 0 
" style="fill:none;stroke:#d3d3d3;stroke-linecap:square;stroke-width:1.5;"/>
   </g>
   <g id="line2d_50">
    <path clip-path="url(#pec9465d703)" d="M 405.892562 258.931693 
L 415.917715 261.119826 
L 425.942867 264.037337 
L 435.96802 262.943271 
L 445.993173 264.402026 
L 456.018326 265.860781 
L 466.043478 255.284805 
L 476.068631 244.344139 
L 486.093784 241.791317 
L 496.118936 225.01563 
L 506.144089 215.533719 
L 516.169242 187.817366 
L 526.194395 175.417945 
L 536.219547 178.700145 
L 546.2447 182.711722 
L 556.269853 178.335456 
L 566.295005 188.911433 
L 576.320158 207.510564 
L 586.345311 218.815919 
L 596.370464 219.545297 
L 606.395616 208.239942 
L 616.420769 216.263097 
L 626.445922 227.203763 
L 636.471074 231.580029 
" style="fill:none;stroke:#d3d3d3;stroke-linecap:square;stroke-width:1.5;"/>
   </g>
   <g id="line2d_51">
    <path clip-path="url(#pec9465d703)" d="M 405.892562 262.578582 
L 415.917715 267.684226 
L 425.942867 270.966425 
L 435.96802 268.778292 
L 445.993173 262.943271 
L 456.018326 253.096671 
L 466.043478 254.190738 
L 476.068631 246.167583 
L 486.093784 223.556874 
L 496.118936 217.721852 
L 506.144089 199.852098 
L 516.169242 184.535166 
L 526.194395 180.523589 
L 536.219547 187.452677 
L 546.2447 185.629233 
L 556.269853 200.216787 
L 566.295005 204.957742 
L 576.320158 205.322431 
L 586.345311 198.393343 
L 596.370464 198.028654 
L 606.395616 217.357164 
L 616.420769 237.050362 
L 626.445922 245.438205 
L 636.471074 249.449783 
" style="fill:none;stroke:#d3d3d3;stroke-linecap:square;stroke-width:1.5;"/>
   </g>
   <g id="line2d_52">
    <path clip-path="url(#pec9465d703)" d="M 405.892562 261.119826 
L 415.917715 264.037337 
L 425.942867 262.943271 
L 435.96802 264.402026 
L 445.993173 265.860781 
L 456.018326 255.284805 
L 466.043478 244.344139 
L 476.068631 241.791317 
L 486.093784 225.01563 
L 496.118936 215.533719 
L 506.144089 187.817366 
L 516.169242 175.417945 
L 526.194395 178.700145 
L 536.219547 182.711722 
L 546.2447 178.335456 
L 556.269853 188.911433 
L 566.295005 207.510564 
L 576.320158 218.815919 
L 586.345311 219.545297 
L 596.370464 208.239942 
L 606.395616 216.263097 
L 616.420769 227.203763 
L 626.445922 231.580029 
L 636.471074 234.862229 
" style="fill:none;stroke:#d3d3d3;stroke-linecap:square;stroke-width:1.5;"/>
   </g>
   <g id="line2d_53">
    <path clip-path="url(#pec9465d703)" d="M 405.892562 262.578582 
L 415.917715 266.590159 
L 425.942867 269.50767 
L 435.96802 268.778292 
L 445.993173 269.50767 
L 456.018326 263.307959 
L 466.043478 250.179161 
L 476.068631 241.791317 
L 486.093784 223.556874 
L 496.118936 215.533719 
L 506.144089 195.111143 
L 516.169242 175.417945 
L 526.194395 144.784081 
L 536.219547 141.137192 
L 546.2447 141.137192 
L 556.269853 142.960637 
L 566.295005 130.561216 
L 576.320158 130.561216 
L 586.345311 138.58437 
L 596.370464 145.878148 
L 606.395616 181.617656 
L 616.420769 202.040232 
L 626.445922 208.239942 
L 636.471074 227.203763 
" style="fill:none;stroke:#ff0000;stroke-linecap:square;stroke-width:1.5;"/>
   </g>
   <g id="line2d_54">
    <path clip-path="url(#pec9465d703)" d="M 405.892562 290.294935 
L 415.917715 289.565557 
L 425.942867 296.129957 
L 435.96802 288.836179 
L 445.993173 286.648046 
L 456.018326 276.436758 
L 466.043478 264.037337 
L 476.068631 265.496093 
L 486.093784 271.331114 
L 496.118936 271.331114 
L 506.144089 264.766715 
L 516.169242 256.014182 
L 526.194395 229.756585 
L 536.219547 218.086541 
L 546.2447 211.522142 
L 556.269853 206.416498 
L 566.295005 212.980897 
L 576.320158 223.921563 
L 586.345311 216.627786 
L 596.370464 215.898408 
L 606.395616 207.145876 
L 616.420769 149.525036 
L 626.445922 145.14877 
L 636.471074 129.10246 
" style="fill:none;stroke:#1f77b4;stroke-linecap:square;stroke-width:1.5;"/>
   </g>
   <g id="line2d_55">
    <path clip-path="url(#pec9465d703)" d="M 516.169242 320.4 
L 516.169242 43.2 
" style="fill:none;stroke:#000000;stroke-dasharray:5.55,2.4;stroke-dashoffset:0;stroke-width:1.5;"/>
   </g>
   <g id="patch_9">
    <path d="M 394.363636 320.4 
L 394.363636 43.2 
" style="fill:none;stroke:#000000;stroke-linecap:square;stroke-linejoin:miter;stroke-width:0.8;"/>
   </g>
   <g id="patch_10">
    <path d="M 648 320.4 
L 648 43.2 
" style="fill:none;stroke:#000000;stroke-linecap:square;stroke-linejoin:miter;stroke-width:0.8;"/>
   </g>
   <g id="patch_11">
    <path d="M 394.363636 320.4 
L 648 320.4 
" style="fill:none;stroke:#000000;stroke-linecap:square;stroke-linejoin:miter;stroke-width:0.8;"/>
   </g>
   <g id="patch_12">
    <path d="M 394.363636 43.2 
L 648 43.2 
" style="fill:none;stroke:#000000;stroke-linecap:square;stroke-linejoin:miter;stroke-width:0.8;"/>
   </g>
   <g id="legend_2">
    <g id="patch_13">
     <path d="M 469.257812 315.4 
L 641 315.4 
Q 643 315.4 643 313.4 
L 643 285.04375 
Q 643 283.04375 641 283.04375 
L 469.257812 283.04375 
Q 467.257812 283.04375 467.257812 285.04375 
L 467.257812 313.4 
Q 467.257812 315.4 469.257812 315.4 
z
" style="fill:#ffffff;opacity:0.8;stroke:#cccccc;stroke-linejoin:miter;"/>
    </g>
    <g id="line2d_56">
     <path d="M 471.257812 291.142187 
L 491.257812 291.142187 
" style="fill:none;stroke:#ff0000;stroke-linecap:square;stroke-width:1.5;"/>
    </g>
    <g id="line2d_57"/>
    <g id="text_32">
     <!-- Weighted Median Prediction -->
     <g transform="translate(499.257812 294.642187)scale(0.1 -0.1)">
      <use xlink:href="#DejaVuSans-87"/>
      <use x="93.001953" xlink:href="#DejaVuSans-101"/>
      <use x="154.525391" xlink:href="#DejaVuSans-105"/>
      <use x="182.308594" xlink:href="#DejaVuSans-103"/>
      <use x="245.785156" xlink:href="#DejaVuSans-104"/>
      <use x="309.164062" xlink:href="#DejaVuSans-116"/>
      <use x="348.373047" xlink:href="#DejaVuSans-101"/>
      <use x="409.896484" xlink:href="#DejaVuSans-100"/>
      <use x="473.373047" xlink:href="#DejaVuSans-32"/>
      <use x="505.160156" xlink:href="#DejaVuSans-77"/>
      <use x="591.439453" xlink:href="#DejaVuSans-101"/>
      <use x="652.962891" xlink:href="#DejaVuSans-100"/>
      <use x="716.439453" xlink:href="#DejaVuSans-105"/>
      <use x="744.222656" xlink:href="#DejaVuSans-97"/>
      <use x="805.501953" xlink:href="#DejaVuSans-110"/>
      <use x="868.880859" xlink:href="#DejaVuSans-32"/>
      <use x="900.667969" xlink:href="#DejaVuSans-80"/>
      <use x="959.220703" xlink:href="#DejaVuSans-114"/>
      <use x="998.083984" xlink:href="#DejaVuSans-101"/>
      <use x="1059.607422" xlink:href="#DejaVuSans-100"/>
      <use x="1123.083984" xlink:href="#DejaVuSans-105"/>
      <use x="1150.867188" xlink:href="#DejaVuSans-99"/>
      <use x="1205.847656" xlink:href="#DejaVuSans-116"/>
      <use x="1245.056641" xlink:href="#DejaVuSans-105"/>
      <use x="1272.839844" xlink:href="#DejaVuSans-111"/>
      <use x="1334.021484" xlink:href="#DejaVuSans-110"/>
     </g>
    </g>
    <g id="line2d_58">
     <path d="M 471.257812 305.820312 
L 491.257812 305.820312 
" style="fill:none;stroke:#1f77b4;stroke-linecap:square;stroke-width:1.5;"/>
    </g>
    <g id="line2d_59"/>
    <g id="text_33">
     <!-- Observation -->
     <g transform="translate(499.257812 309.320312)scale(0.1 -0.1)">
      <use xlink:href="#DejaVuSans-79"/>
      <use x="78.710938" xlink:href="#DejaVuSans-98"/>
      <use x="142.1875" xlink:href="#DejaVuSans-115"/>
      <use x="194.287109" xlink:href="#DejaVuSans-101"/>
      <use x="255.810547" xlink:href="#DejaVuSans-114"/>
      <use x="296.923828" xlink:href="#DejaVuSans-118"/>
      <use x="356.103516" xlink:href="#DejaVuSans-97"/>
      <use x="417.382812" xlink:href="#DejaVuSans-116"/>
      <use x="456.591797" xlink:href="#DejaVuSans-105"/>
      <use x="484.375" xlink:href="#DejaVuSans-111"/>
      <use x="545.556641" xlink:href="#DejaVuSans-110"/>
     </g>
    </g>
   </g>
  </g>
 </g>
 <defs>
  <clipPath id="pc5d5b87fad">
   <rect height="277.2" width="253.636364" x="90" y="43.2"/>
  </clipPath>
  <clipPath id="pec9465d703">
   <rect height="277.2" width="253.636364" x="394.363636" y="43.2"/>
  </clipPath>
 </defs>
</svg>
